<svg width="21" height="16" viewBox="0 0 21 16" fill="none" xmlns="http://www.w3.org/2000/svg">
<path fill-rule="evenodd" clip-rule="evenodd" d="M8.5 0H12.5C16.271 0 18.157 -1.19209e-07 19.328 1.172C20.172 2.015 20.408 3.229 20.474 5.25H0.526C0.592 3.229 0.828 2.015 1.672 1.172C2.843 -1.19209e-07 4.729 0 8.5 0ZM12.5 16H8.5C4.729 16 2.843 16 1.672 14.828C0.5 13.657 0.5 11.771 0.5 8C0.5 7.558 0.5 7.142 0.502 6.75H20.498C20.5 7.142 20.5 7.558 20.5 8C20.5 11.771 20.5 13.657 19.328 14.828C18.157 16 16.271 16 12.5 16ZM4.5 11.25C4.30109 11.25 4.11032 11.329 3.96967 11.4697C3.82902 11.6103 3.75 11.8011 3.75 12C3.75 12.1989 3.82902 12.3897 3.96967 12.5303C4.11032 12.671 4.30109 12.75 4.5 12.75H8.5C8.69891 12.75 8.88968 12.671 9.03033 12.5303C9.17098 12.3897 9.25 12.1989 9.25 12C9.25 11.8011 9.17098 11.6103 9.03033 11.4697C8.88968 11.329 8.69891 11.25 8.5 11.25H4.5ZM11 11.25C10.8011 11.25 10.6103 11.329 10.4697 11.4697C10.329 11.6103 10.25 11.8011 10.25 12C10.25 12.1989 10.329 12.3897 10.4697 12.5303C10.6103 12.671 10.8011 12.75 11 12.75H12.5C12.6989 12.75 12.8897 12.671 13.0303 12.5303C13.171 12.3897 13.25 12.1989 13.25 12C13.25 11.8011 13.171 11.6103 13.0303 11.4697C12.8897 11.329 12.6989 11.25 12.5 11.25H11Z" fill="#FFB940"/>
</svg>
