<svg width="21" height="24" viewBox="0 0 21 24" fill="none" xmlns="http://www.w3.org/2000/svg">
<path d="M10.5 0.25C13.0859 0.25 15.5658 1.27723 17.3943 3.10571C19.2228 4.93419 20.25 7.41414 20.25 10C20.25 14.12 17.355 18.61 11.64 23.518C11.3222 23.791 10.9171 23.9409 10.4981 23.9405C10.0792 23.9402 9.6743 23.7895 9.357 23.516L8.979 23.188C3.517 18.408 0.75 14.028 0.75 10C0.75 7.41414 1.77723 4.93419 3.60571 3.10571C5.43419 1.27723 7.91414 0.25 10.5 0.25ZM10.5 6.25C9.50544 6.25 8.55161 6.64509 7.84835 7.34835C7.14509 8.05161 6.75 9.00544 6.75 10C6.75 10.9946 7.14509 11.9484 7.84835 12.6517C8.55161 13.3549 9.50544 13.75 10.5 13.75C11.4946 13.75 12.4484 13.3549 13.1517 12.6517C13.8549 11.9484 14.25 10.9946 14.25 10C14.25 9.00544 13.8549 8.05161 13.1517 7.34835C12.4484 6.64509 11.4946 6.25 10.5 6.25Z" fill="#565656"/>
</svg>
