<svg width="19" height="24" viewBox="0 0 19 24" fill="none" xmlns="http://www.w3.org/2000/svg">
<path d="M9.6017 9.6C6.89086 9.55804 4.82006 7.37884 4.80172 4.8C4.8465 2.11334 7.04244 0.01884 9.6017 0C12.3149 0.1026 14.3824 2.1794 14.4017 4.8C14.3484 7.48878 12.1636 9.5818 9.6017 9.6ZM13.4826 10.5958C16.8944 10.6356 18.6244 13.6284 18.6402 16.6211V24H15.2955L15.2955 17.5149C15.214 17.0666 14.9104 16.9146 14.6322 16.9585C14.3718 16.9997 14.1336 17.2125 14.121 17.5149V24H4.8276V17.5149C4.75646 17.0882 4.48504 16.9242 4.22098 16.9407C3.93822 16.9585 3.66392 17.1834 3.65312 17.5149V24H0.359517V16.6211C0.339917 13.4316 2.35754 10.6194 5.54226 10.5958H13.4826Z" fill="#565656"/>
</svg>
