<svg width="19" height="16" viewBox="0 0 19 16" fill="none" xmlns="http://www.w3.org/2000/svg">
<path d="M3.5 14V15C3.5 15.2833 3.40417 15.5208 3.2125 15.7125C3.02083 15.9042 2.78333 16 2.5 16H1.5C1.21667 16 0.979167 15.9042 0.7875 15.7125C0.595833 15.5208 0.5 15.2833 0.5 15V7L2.6 1C2.7 0.7 2.87917 0.458333 3.1375 0.275C3.39583 0.0916667 3.68333 0 4 0H15C15.3167 0 15.6042 0.0916667 15.8625 0.275C16.1208 0.458333 16.3 0.7 16.4 1L18.5 7V15C18.5 15.2833 18.4042 15.5208 18.2125 15.7125C18.0208 15.9042 17.7833 16 17.5 16H16.5C16.2167 16 15.9792 15.9042 15.7875 15.7125C15.5958 15.5208 15.5 15.2833 15.5 15V14H3.5ZM3.3 5H15.7L14.65 2H4.35L3.3 5ZM5 11C5.41667 11 5.77083 10.8542 6.0625 10.5625C6.35417 10.2708 6.5 9.91667 6.5 9.5C6.5 9.08333 6.35417 8.72917 6.0625 8.4375C5.77083 8.14583 5.41667 8 5 8C4.58333 8 4.22917 8.14583 3.9375 8.4375C3.64583 8.72917 3.5 9.08333 3.5 9.5C3.5 9.91667 3.64583 10.2708 3.9375 10.5625C4.22917 10.8542 4.58333 11 5 11ZM14 11C14.4167 11 14.7708 10.8542 15.0625 10.5625C15.3542 10.2708 15.5 9.91667 15.5 9.5C15.5 9.08333 15.3542 8.72917 15.0625 8.4375C14.7708 8.14583 14.4167 8 14 8C13.5833 8 13.2292 8.14583 12.9375 8.4375C12.6458 8.72917 12.5 9.08333 12.5 9.5C12.5 9.91667 12.6458 10.2708 12.9375 10.5625C13.2292 10.8542 13.5833 11 14 11Z" fill="#565656"/>
</svg>
