<svg width="25" height="25" viewBox="0 0 25 25" fill="none" xmlns="http://www.w3.org/2000/svg">
<g clip-path="url(#clip0_418_5719)">
<path d="M23.5869 19.0112C23.5869 19.5417 23.3762 20.0504 23.0011 20.4254C22.6261 20.8005 22.1173 21.0112 21.5869 21.0112H3.58691C3.05648 21.0112 2.54777 20.8005 2.1727 20.4254C1.79763 20.0504 1.58691 19.5417 1.58691 19.0112V8.01123C1.58691 7.4808 1.79763 6.97209 2.1727 6.59702C2.54777 6.22194 3.05648 6.01123 3.58691 6.01123H7.58691L9.58691 3.01123H15.5869L17.5869 6.01123H21.5869C22.1173 6.01123 22.6261 6.22194 23.0011 6.59702C23.3762 6.97209 23.5869 7.4808 23.5869 8.01123V19.0112Z" stroke="#565656" stroke-width="2" stroke-linecap="round" stroke-linejoin="round"/>
<path d="M12.5869 17.0112C14.7961 17.0112 16.5869 15.2204 16.5869 13.0112C16.5869 10.8021 14.7961 9.01123 12.5869 9.01123C10.3778 9.01123 8.58691 10.8021 8.58691 13.0112C8.58691 15.2204 10.3778 17.0112 12.5869 17.0112Z" stroke="#565656" stroke-width="2" stroke-linecap="round" stroke-linejoin="round"/>
</g>
<defs>
<clipPath id="clip0_418_5719">
<rect width="24" height="24" fill="white" transform="translate(0.586914 0.0112305)"/>
</clipPath>
</defs>
</svg>
