<svg width="25" height="20" viewBox="0 0 25 20" fill="none" xmlns="http://www.w3.org/2000/svg">
<path d="M8.36666 3.15574C8.37434 3.48741 8.31564 3.81726 8.19403 4.12592C8.07241 4.43457 7.89032 4.7158 7.65847 4.95309C7.42662 5.19037 7.14967 5.37891 6.84391 5.50764C6.53816 5.63637 6.20975 5.70268 5.878 5.70268C5.54625 5.70268 5.21784 5.63637 4.91208 5.50764C4.60633 5.37891 4.32938 5.19037 4.09753 4.95309C3.86568 4.7158 3.68359 4.43457 3.56197 4.12592C3.44036 3.81726 3.38166 3.48741 3.38934 3.15574C3.40003 2.50268 3.66696 1.87997 4.13257 1.42192C4.59819 0.963861 5.22518 0.707153 5.87833 0.707153C6.53149 0.707153 7.15848 0.963861 7.62409 1.42192C8.08971 1.87997 8.35664 2.50268 8.36733 3.15574H8.36666Z" fill="#565656"/>
<path fill-rule="evenodd" clip-rule="evenodd" d="M2.964 11.3297C2.77658 11.6296 2.47772 11.8427 2.13315 11.9223C1.78858 12.0018 1.42654 11.9412 1.12667 11.7537C0.826802 11.5663 0.613665 11.2675 0.53415 10.9229C0.454634 10.5783 0.515254 10.2163 0.702673 9.91641L0.70534 9.91241L0.710007 9.90507L0.726007 9.87974C0.810572 9.74645 0.897474 9.61465 0.986673 9.48441C1.2029 9.1655 1.43015 8.8542 1.668 8.55108C1.934 8.21508 2.26067 7.83575 2.606 7.52775C2.77867 7.37375 2.98667 7.20975 3.222 7.07775C3.44333 6.95375 3.78933 6.80042 4.21267 6.80042H7.54332C7.96666 6.80042 8.31266 6.95375 8.53466 7.07775C8.76932 7.20975 8.97799 7.37375 9.14999 7.52775C9.49532 7.83575 9.82265 8.21508 10.088 8.55174C10.4237 8.97859 10.7381 9.42179 11.03 9.87974L11.0466 9.90507L11.0513 9.91174L11.0533 9.91574C11.2356 10.2154 11.2925 10.5748 11.2116 10.9161C11.1307 11.2574 10.9186 11.5531 10.6212 11.7391C10.3239 11.9251 9.96519 11.9864 9.62291 11.9098C9.28064 11.8332 8.98234 11.6248 8.79265 11.3297L8.79066 11.3271L8.77999 11.3104C8.74668 11.2579 8.7129 11.2057 8.67866 11.1537V12.8097L9.16065 17.8731C9.19096 18.2182 9.08573 18.5616 8.86725 18.8305C8.64878 19.0994 8.33421 19.2727 7.99018 19.3137C7.64614 19.3546 7.29967 19.2601 7.02413 19.0501C6.74859 18.84 6.56563 18.531 6.51399 18.1884L5.83333 13.4284L5.15333 18.1884C5.10464 18.5336 4.92267 18.846 4.6464 19.0587C4.37014 19.2714 4.02156 19.3674 3.67536 19.3262C3.32916 19.2849 3.01289 19.1097 2.79431 18.8381C2.57573 18.5665 2.47224 18.2201 2.506 17.8731L3.066 11.9997H3.078V11.1531C3.0436 11.2053 3.0096 11.2577 2.976 11.3104L2.966 11.3271L2.964 11.3297Z" fill="#565656"/>
<path d="M21.6997 3.15513C21.6997 3.81525 21.4374 4.44834 20.9707 4.91512C20.5039 5.3819 19.8708 5.64413 19.2107 5.64413C18.5506 5.64413 17.9175 5.3819 17.4507 4.91512C16.9839 4.44834 16.7217 3.81525 16.7217 3.15513C16.7217 2.49501 16.9839 1.86192 17.4507 1.39515C17.9175 0.92837 18.5506 0.666138 19.2107 0.666138C19.8708 0.666138 20.5039 0.92837 20.9707 1.39515C21.4374 1.86192 21.6997 2.49501 21.6997 3.15513Z" fill="#565656"/>
<path fill-rule="evenodd" clip-rule="evenodd" d="M16.3013 11.1898C16.1126 11.4847 15.8156 11.6936 15.4743 11.7714C15.133 11.8492 14.7747 11.7896 14.477 11.6055C14.1792 11.4214 13.9658 11.1276 13.8828 10.7876C13.7997 10.4475 13.8538 10.0884 14.0333 9.78783L14.0353 9.78383L14.0406 9.7765L14.0559 9.75116L14.1126 9.66183C14.386 9.23627 14.6781 8.82298 14.9879 8.42317C15.2506 8.08717 15.5746 7.70717 15.9159 7.3985C16.0873 7.2445 16.2939 7.07917 16.5279 6.94717C16.7479 6.82184 17.0946 6.6665 17.5199 6.6665H20.8146C21.2399 6.6665 21.5866 6.82184 21.8073 6.9465C22.0406 7.07984 22.2473 7.2445 22.4186 7.3985C22.7606 7.70717 23.0839 8.08717 23.3466 8.42317C23.6788 8.85006 23.9899 9.29304 24.2786 9.7505L24.2946 9.7765L24.3013 9.78783C24.4873 10.0886 24.5462 10.4509 24.465 10.7951C24.3839 11.1393 24.1693 11.4372 23.8686 11.6232C23.5678 11.8092 23.2055 11.8681 22.8613 11.7869C22.5171 11.7058 22.2193 11.4912 22.0333 11.1905L22.0313 11.1872L22.0213 11.1705C21.921 11.0125 21.8176 10.8565 21.7113 10.7025C22.0233 12.2558 22.6379 14.3865 22.9593 15.4638C22.9861 15.5513 22.9944 15.6434 22.9838 15.7343C22.9732 15.8251 22.9438 15.9128 22.8976 15.9918C22.8513 16.0707 22.7892 16.1392 22.7152 16.1929C22.6411 16.2466 22.5567 16.2844 22.4673 16.3038C20.1093 16.7951 18.4586 16.7825 15.8979 16.2945C15.806 16.2764 15.719 16.2391 15.6425 16.1851C15.566 16.1311 15.5017 16.0616 15.4539 15.981C15.4061 15.9005 15.3758 15.8108 15.365 15.7178C15.3542 15.6247 15.3632 15.5305 15.3913 15.4412C15.7279 14.3585 16.3539 12.2505 16.6506 10.6625C16.5349 10.8296 16.4224 10.999 16.3133 11.1705L16.3033 11.1872L16.3013 11.1898ZM16.2339 17.4345V18.3331C16.2342 18.5755 16.3224 18.8095 16.4822 18.9916C16.642 19.1738 16.8626 19.2917 17.1028 19.3235C17.343 19.3553 17.5866 19.2987 17.7883 19.1644C17.99 19.0301 18.136 18.8271 18.1993 18.5931L18.4626 17.6171C17.7173 17.5907 16.9736 17.5297 16.2339 17.4345ZM20.0039 17.6145L20.2686 18.5938C20.3319 18.8278 20.478 19.0308 20.6797 19.1652C20.8815 19.2995 21.1251 19.356 21.3654 19.3241C21.6057 19.2922 21.8262 19.1742 21.986 18.9919C22.1457 18.8096 22.2338 18.5755 22.2339 18.3331V17.4251C21.4938 17.5211 20.7497 17.5847 20.0039 17.6145Z" fill="#565656"/>
</svg>
