<svg width="14" height="8" viewBox="0 0 14 8" fill="none" xmlns="http://www.w3.org/2000/svg">
<path fill-rule="evenodd" clip-rule="evenodd" d="M7.7071 7.7071C7.51957 7.89457 7.26526 7.99989 7.0001 7.99989C6.73493 7.99989 6.48063 7.89457 6.2931 7.7071L0.636099 2.0501C0.540589 1.95785 0.464406 1.84751 0.411997 1.7255C0.359588 1.6035 0.332002 1.47228 0.330848 1.3395C0.329694 1.20672 0.354996 1.07504 0.405277 0.952145C0.455558 0.829249 0.529811 0.717596 0.623704 0.623704C0.717597 0.529811 0.829248 0.455558 0.952145 0.405277C1.07504 0.354996 1.20672 0.329694 1.3395 0.330848C1.47228 0.332002 1.6035 0.359588 1.7255 0.411997C1.84751 0.464406 1.95785 0.540588 2.0501 0.636098L7.0001 5.5861L11.9501 0.636098C12.1387 0.45394 12.3913 0.353146 12.6535 0.355424C12.9157 0.357703 13.1665 0.462872 13.3519 0.64828C13.5373 0.833688 13.6425 1.0845 13.6448 1.3467C13.6471 1.60889 13.5463 1.8615 13.3641 2.0501L7.7071 7.7071Z" fill="#565656"/>
</svg>
