<svg width="20" height="19" viewBox="0 0 20 19" fill="none" xmlns="http://www.w3.org/2000/svg">
<path d="M16.5122 8.07699C16.5122 8.81599 15.8872 9.41499 15.1162 9.41499C14.3462 9.41499 13.7212 8.81499 13.7212 8.07699C13.7212 7.33799 14.3462 6.73999 15.1162 6.73999C15.8862 6.73999 16.5122 7.33799 16.5122 8.07699Z" fill="#565656"/>
<path fill-rule="evenodd" clip-rule="evenodd" d="M16.036 3.532C14.976 3.396 13.622 3.396 11.913 3.396H8.087C6.377 3.396 5.023 3.396 3.964 3.532C2.874 3.673 1.99 3.969 1.294 4.636C0.598 5.304 0.289 6.15 0.142 7.196C-4.47035e-08 8.21 0 9.508 0 11.147V11.247C0 12.886 -4.47035e-08 14.184 0.142 15.2C0.289 16.245 0.598 17.091 1.294 17.758C1.99 18.426 2.874 18.722 3.964 18.862C5.024 19 6.378 19 8.087 19H11.913C13.623 19 14.977 19 16.036 18.863C17.126 18.723 18.01 18.427 18.706 17.759C19.402 17.092 19.711 16.246 19.858 15.201C20 14.185 20 12.887 20 11.248V11.148C20 9.508 20 8.211 19.858 7.195C19.711 6.15 19.402 5.304 18.706 4.636C18.01 3.969 17.126 3.673 16.036 3.532ZM4.15 4.858C3.214 4.978 2.675 5.205 2.28 5.582C1.887 5.96 1.651 6.476 1.525 7.373C1.425 8.093 1.402 8.993 1.397 10.169L1.867 9.774C2.992 8.831 4.686 8.885 5.742 9.897L9.732 13.722C9.92975 13.9085 10.1849 14.0223 10.4558 14.0448C10.7267 14.0673 10.9972 13.9972 11.223 13.846L11.501 13.659C12.1531 13.2229 12.9297 13.0114 13.7129 13.0565C14.4961 13.1016 15.2433 13.4009 15.841 13.909L18.248 15.987C18.346 15.723 18.421 15.407 18.475 15.022C18.603 14.106 18.605 12.898 18.605 11.198C18.605 9.498 18.603 8.29 18.475 7.373C18.349 6.476 18.113 5.96 17.719 5.583C17.326 5.205 16.786 4.979 15.85 4.858C14.894 4.735 13.634 4.733 11.86 4.733H8.14C6.366 4.733 5.106 4.735 4.15 4.858Z" fill="#565656"/>
<path d="M15.0861 0.61C14.2261 0.5 13.1321 0.5 11.7671 0.5H8.67709C7.31309 0.5 6.21809 0.5 5.35809 0.61C4.46809 0.725 3.72609 0.968 3.13709 1.53C2.81202 1.84202 2.56413 2.22549 2.41309 2.65C2.91709 2.42 3.48709 2.284 4.12709 2.2C5.21109 2.06 6.59709 2.06 8.34709 2.06H12.2611C14.0111 2.06 15.3961 2.06 16.4811 2.2C17.0391 2.273 17.5451 2.386 18.0001 2.566C17.8478 2.1746 17.6116 1.82131 17.3081 1.531C16.7191 0.968 15.9771 0.725 15.0861 0.611V0.61Z" fill="#565656"/>
</svg>
