<svg width="24" height="24" viewBox="0 0 24 24" fill="none" xmlns="http://www.w3.org/2000/svg">
<path d="M4.47583 12.9375V12.942C4.45057 13.0373 4.40678 13.1266 4.34696 13.205C4.28714 13.2833 4.21247 13.3491 4.12721 13.3985C4.04195 13.448 3.94778 13.4802 3.85009 13.4932C3.75239 13.5062 3.65308 13.4999 3.55783 13.4745C2.91133 13.3035 3.02533 12.558 3.02533 12.558L3.05233 12.465C3.05233 12.465 3.09133 12.339 3.12283 12.2475C3.50777 11.1682 4.07443 10.1627 4.79833 9.2745C6.14383 7.6335 8.40734 6 11.9998 6C15.5924 6 17.8559 7.6335 19.2029 9.2745C19.9268 10.1627 20.4935 11.1682 20.8784 12.2475C20.9106 12.3403 20.9406 12.4338 20.9684 12.528L20.9729 12.5475V12.5535L20.9744 12.5565C21.0219 12.7474 20.9925 12.9494 20.8926 13.1188C20.7927 13.2883 20.6303 13.4117 20.4401 13.4625C20.25 13.5132 20.0477 13.4873 19.8765 13.3902C19.7054 13.2931 19.5792 13.1327 19.5254 12.9435L19.5239 12.9375L19.5119 12.9C19.4268 12.6345 19.3266 12.3741 19.2119 12.12C18.9062 11.4402 18.5129 10.8033 18.0419 10.2255C16.9289 8.868 15.0659 7.5 11.9998 7.5C8.93384 7.5 7.07233 8.868 5.95783 10.2255C5.34659 10.9762 4.86727 11.8253 4.54033 12.7365C4.5218 12.7907 4.5043 12.8452 4.48784 12.9L4.47583 12.9375ZM8.24983 14.25C8.24983 13.2554 8.64493 12.3016 9.34819 11.5983C10.0514 10.8951 11.0053 10.5 11.9998 10.5C12.9944 10.5 13.9482 10.8951 14.6515 11.5983C15.3548 12.3016 15.7499 13.2554 15.7499 14.25C15.7499 15.2445 15.3548 16.1984 14.6515 16.9017C13.9482 17.6049 12.9944 18 11.9998 18C11.0053 18 10.0514 17.6049 9.34819 16.9017C8.64493 16.1984 8.24983 15.2445 8.24983 14.25Z" fill="#565656"/>
</svg>
