<svg width="22" height="22" viewBox="0 0 22 22" fill="none" xmlns="http://www.w3.org/2000/svg">
<path fill-rule="evenodd" clip-rule="evenodd" d="M14.8628 2.765H19.8803C20.6288 2.765 21.2498 3.347 21.4388 4.1345C21.489 4.3475 21.4965 4.526 21.3683 4.71575C21.3072 4.80778 21.2242 4.88327 21.1269 4.93548C21.0295 4.98769 20.9207 5.01501 20.8103 5.015H20.7503V21.5H1.25027V5.015H1.17527C1.06225 5.01487 0.951093 4.98621 0.852106 4.93166C0.753119 4.87712 0.669505 4.79847 0.609018 4.703C0.481518 4.505 0.498018 4.313 0.552768 4.094C0.742518 3.32675 1.35527 2.765 2.09027 2.765H7.10777C7.49622 2.07844 8.05972 1.50711 8.74086 1.10923C9.422 0.711354 10.1964 0.501137 10.9853 0.5C11.7741 0.501137 12.5485 0.711354 13.2297 1.10923C13.9108 1.50711 14.4743 2.07844 14.8628 2.765ZM6.50027 21.215C6.50027 20.96 6.71027 20.75 6.96602 20.75H7.25027V5.015H6.50027V21.215ZM15.0345 20.75H14.7503V5.015H15.5003V21.215C15.5003 20.96 15.2903 20.75 15.0345 20.75ZM10.9928 1.25H10.9965C10.9953 1.25 10.994 1.25 10.9928 1.25ZM3.50027 14.9795V16.7668C3.50027 16.8942 3.39527 17 3.26027 17H2.23277C2.10527 17 2.00027 16.895 2.00027 16.7675V14.9795C2.00027 14.852 2.10527 14.747 2.23277 14.747H3.26777C3.39527 14.747 3.50027 14.852 3.50027 14.9795ZM5.75027 14.9795V16.7668C5.75027 16.8942 5.64527 17 5.51027 17H4.48277C4.35527 17 4.25027 16.895 4.25027 16.7675V14.9795C4.25027 14.852 4.35527 14.747 4.48277 14.747H5.51777C5.64527 14.747 5.75027 14.852 5.75027 14.9795ZM3.50027 11.2235V13.0115C3.50027 13.139 3.39527 13.244 3.26027 13.244H2.23277C2.10527 13.244 2.00027 13.139 2.00027 13.0115V11.2235C2.00027 11.096 2.10527 10.991 2.23277 10.991H3.26777C3.39527 10.991 3.50027 11.096 3.50027 11.2235ZM5.75027 11.2235V13.0115C5.75027 13.139 5.64527 13.244 5.51027 13.244H4.48277C4.35527 13.244 4.25027 13.139 4.25027 13.0115V11.2235C4.25027 11.096 4.35527 10.991 4.48277 10.991H5.51777C5.64527 10.991 5.75027 11.096 5.75027 11.2235ZM3.50027 7.48325V9.2705C3.50027 9.398 3.39527 9.503 3.26027 9.503H2.23277C2.10527 9.503 2.00027 9.398 2.00027 9.2705V7.4825C2.00027 7.355 2.10527 7.25 2.23277 7.25H3.26777C3.39527 7.25 3.50027 7.35575 3.50027 7.48325ZM5.75027 7.48325V9.2705C5.75027 9.398 5.64527 9.503 5.51027 9.503H4.48277C4.35527 9.503 4.25027 9.398 4.25027 9.2705V7.4825C4.25027 7.355 4.35527 7.25 4.48277 7.25H5.51777C5.64527 7.25 5.75027 7.35575 5.75027 7.48325ZM17.7458 14.9795V16.7668C17.7458 16.8942 17.6408 17 17.5133 17H16.4828C16.4211 16.9998 16.362 16.9753 16.3183 16.9317C16.2746 16.8882 16.2499 16.8292 16.2495 16.7675V14.9795C16.2495 14.852 16.3545 14.747 16.482 14.747H17.5118C17.6393 14.747 17.7458 14.852 17.7458 14.9795ZM20.0003 14.9795V16.7668C20.0003 16.8942 19.8953 17 19.7678 17H18.738C18.6763 16.9998 18.6172 16.9753 18.5736 16.9317C18.5299 16.8882 18.5052 16.8292 18.5048 16.7675V14.9795C18.5048 14.852 18.6098 14.747 18.7373 14.747H19.767C19.8945 14.747 20.0003 14.852 20.0003 14.9795ZM17.7458 11.2235V13.0115C17.7458 13.139 17.6408 13.244 17.5133 13.244H16.4828C16.4211 13.2438 16.362 13.2193 16.3183 13.1757C16.2746 13.1322 16.2499 13.0732 16.2495 13.0115V11.2235C16.2495 11.096 16.3545 10.991 16.482 10.991H17.5118C17.6393 10.991 17.7458 11.096 17.7458 11.2235ZM20.0003 11.2235V13.0115C20.0003 13.139 19.8953 13.244 19.7678 13.244H18.738C18.6763 13.2438 18.6172 13.2193 18.5736 13.1757C18.5299 13.1322 18.5052 13.0732 18.5048 13.0115V11.2235C18.5048 11.096 18.6098 10.991 18.7373 10.991H19.767C19.8945 10.991 20.0003 11.096 20.0003 11.2235ZM17.7458 7.48325V9.2705C17.7458 9.398 17.6408 9.503 17.5133 9.503H16.4828C16.4211 9.5028 16.362 9.47827 16.3183 9.43473C16.2746 9.39119 16.2499 9.33217 16.2495 9.2705V7.4825C16.2495 7.355 16.3545 7.25 16.482 7.25H17.5118C17.6393 7.25 17.745 7.355 17.745 7.4825L17.7458 7.48325ZM20.0003 7.48325V9.2705C20.0003 9.398 19.8953 9.503 19.7678 9.503H18.738C18.6763 9.5028 18.6172 9.47827 18.5736 9.43473C18.5299 9.39119 18.5052 9.33217 18.5048 9.2705V7.4825C18.5048 7.355 18.6098 7.25 18.7373 7.25H19.767C19.8945 7.25 20.0003 7.35575 20.0003 7.48325ZM10.2503 8.9825V10.7675C10.2503 10.895 10.1453 11 10.0163 11H8.98427C8.92247 11 8.86317 10.9756 8.81933 10.932C8.77549 10.8884 8.75066 10.8293 8.75027 10.7675V8.9825C8.75027 8.855 8.85527 8.75 8.98427 8.75H10.0163C10.1445 8.75 10.2503 8.855 10.2503 8.9825ZM10.353 19.25H9.02252C8.98638 19.2498 8.95063 19.2425 8.91735 19.2284C8.88406 19.2143 8.85389 19.1938 8.82858 19.168C8.80327 19.1422 8.78332 19.1116 8.76988 19.0781C8.75644 19.0445 8.74977 19.0086 8.75027 18.9725V15.5015H10.6253V18.9733C10.6253 19.1308 10.5 19.25 10.353 19.25ZM11.3753 14.7515V14.75H10.6253V14.7515H8.75027V14.75H7.96577C7.9212 14.7504 7.87699 14.742 7.83569 14.7252C7.7944 14.7084 7.75684 14.6836 7.72518 14.6522C7.69352 14.6208 7.66839 14.5835 7.65124 14.5424C7.63409 14.5012 7.62527 14.4571 7.62527 14.4125C7.62527 14.3525 7.64777 14.3 7.67027 14.255C7.67477 14.2505 7.67702 14.249 7.67777 14.2467V14.24C8.02001 13.6616 8.50714 13.1823 9.09109 12.8496C9.67505 12.5168 10.3357 12.3421 11.0078 12.3425C11.6799 12.3421 12.3405 12.5168 12.9244 12.8496C13.5084 13.1823 13.9955 13.6616 14.3378 14.24C14.3415 14.2437 14.3415 14.249 14.3415 14.255C14.3415 14.261 14.3415 14.2663 14.3453 14.27C14.3678 14.3075 14.3753 14.36 14.3753 14.4125C14.3753 14.4571 14.3664 14.5012 14.3493 14.5424C14.3321 14.5835 14.307 14.6208 14.2754 14.6522C14.2437 14.6836 14.2061 14.7084 14.1648 14.7252C14.1236 14.742 14.0793 14.7504 14.0348 14.75H13.2503V14.7515H11.3753ZM11.3753 15.5015V18.9733C11.3753 19.1308 11.5005 19.25 11.6475 19.25H12.978C13.125 19.25 13.2503 19.13 13.2503 18.9725V15.5015H11.3753ZM13.2503 10.7675V8.9825C13.2503 8.855 13.1453 8.75 13.0163 8.75H11.9843C11.9225 8.75019 11.8633 8.7747 11.8195 8.81822C11.7758 8.86174 11.7509 8.92076 11.7503 8.9825V10.7675C11.7503 10.895 11.8553 11 11.9843 11H13.0163C13.1445 11 13.2503 10.895 13.2503 10.7675ZM12.1335 3.5H12.1185C12.0213 3.5004 11.9282 3.53929 11.8596 3.60817C11.791 3.67704 11.7525 3.77029 11.7525 3.8675V5H10.2488V3.8675C10.2488 3.77003 10.21 3.67656 10.1411 3.60764C10.0722 3.53872 9.97874 3.5 9.88127 3.5H9.86627C9.76906 3.5004 9.67597 3.53929 9.60738 3.60817C9.53878 3.67704 9.50027 3.77029 9.50027 3.8675V6.8825C9.50027 7.085 9.66527 7.25 9.86702 7.25H9.88202C9.97935 7.2498 10.0726 7.211 10.1414 7.1421C10.2102 7.0732 10.2488 6.97984 10.2488 6.8825V5.7575H11.7525V6.8825C11.7525 7.085 11.9168 7.25 12.1185 7.25H12.1335C12.2309 7.2498 12.3241 7.211 12.3929 7.1421C12.4617 7.0732 12.5003 6.97984 12.5003 6.8825V3.8675C12.5003 3.77016 12.4617 3.6768 12.3929 3.6079C12.3241 3.53901 12.2309 3.5002 12.1335 3.5Z" fill="#565656"/>
</svg>
