<svg width="23" height="23" viewBox="0 0 23 23" fill="none" xmlns="http://www.w3.org/2000/svg">
<path d="M11.2126 0.714233C11.3831 0.714233 11.5466 0.781963 11.6671 0.902522C11.7877 1.02308 11.8554 1.18659 11.8554 1.35709V1.57138H18.5C18.8493 1.57182 19.1955 1.63722 19.5209 1.76423C20.0415 1.96921 20.4883 2.32615 20.8032 2.7886C21.1182 3.25105 21.2866 3.79759 21.2866 4.35709L21.2857 13.3571C21.2857 13.4139 21.2631 13.4684 21.223 13.5086C21.1828 13.5488 21.1283 13.5714 21.0714 13.5714C21.0143 13.5704 20.9596 13.5477 20.9186 13.5079C20.8775 13.4681 20.8531 13.4142 20.8503 13.3571C20.815 12.7943 20.6416 12.249 20.3452 11.7693C20.0488 11.2896 19.6387 10.8905 19.1512 10.6071C18.6637 10.3238 18.1139 10.1651 17.5504 10.145C16.9869 10.125 16.4272 10.2442 15.9208 10.4921C15.4144 10.7401 14.9769 11.1091 14.6472 11.5665C14.3175 12.0238 14.1056 12.5555 14.0305 13.1143C13.9553 13.6731 14.0191 14.2418 14.2162 14.7701C14.4133 15.2984 14.7377 15.7698 15.1606 16.1428H14.468C13.9327 16.1426 13.4102 16.3069 12.9714 16.6136C12.5326 16.9202 12.1987 17.3543 12.0149 17.8571H8.07544L5.26572 21.0662C5.15342 21.1946 4.99474 21.273 4.8246 21.2844C4.65445 21.2957 4.48676 21.239 4.35844 21.1267C4.23011 21.0144 4.15165 20.8557 4.14032 20.6855C4.12899 20.5154 4.18571 20.3477 4.29801 20.2194L6.36629 17.8571H3.50087C2.76211 17.8566 2.05373 17.563 1.53127 17.0407C1.00881 16.5184 0.714976 15.8101 0.714294 15.0714V4.35709C0.714294 3.61827 1.00779 2.90972 1.53021 2.38729C2.05263 1.86487 2.76119 1.57138 3.50001 1.57138H10.5689V1.35709C10.5689 1.18659 10.6366 1.02308 10.7572 0.902522C10.8777 0.781963 11.0412 0.714233 11.2117 0.714233H11.2126ZM4.78229 5.42852C4.6118 5.42852 4.44829 5.49625 4.32773 5.61681C4.20717 5.73737 4.13944 5.90088 4.13944 6.07138C4.13944 6.24187 4.20717 6.40539 4.32773 6.52594C4.44829 6.6465 4.6118 6.71423 4.78229 6.71423H9.49744C9.66793 6.71423 9.83145 6.6465 9.95201 6.52594C10.0726 6.40539 10.1403 6.24187 10.1403 6.07138C10.1403 5.90088 10.0726 5.73737 9.95201 5.61681C9.83145 5.49625 9.66793 5.42852 9.49744 5.42852H4.78315H4.78229ZM4.13944 9.49995C4.13944 9.8548 4.42744 10.1428 4.78229 10.1428H13.784C13.9545 10.1428 14.118 10.0751 14.2386 9.95452C14.3591 9.83396 14.4269 9.67044 14.4269 9.49995C14.4269 9.32945 14.3591 9.16594 14.2386 9.04538C14.118 8.92482 13.9545 8.85709 13.784 8.85709H4.78229C4.6118 8.85709 4.44829 8.92482 4.32773 9.04538C4.20717 9.16594 4.13944 9.32945 4.13944 9.49995ZM4.13944 12.9285C4.13944 13.2834 4.42744 13.5714 4.78229 13.5714H12.0697C12.2402 13.5714 12.4037 13.5036 12.5243 13.3831C12.6449 13.2625 12.7126 13.099 12.7126 12.9285C12.7126 12.758 12.6449 12.5945 12.5243 12.474C12.4037 12.3534 12.2402 12.2857 12.0697 12.2857H4.78144C4.61094 12.2857 4.44743 12.3534 4.32687 12.474C4.20631 12.5945 4.13944 12.758 4.13944 12.9285ZM20 13.5714C20 14.2534 19.7291 14.9074 19.2469 15.3897C18.7646 15.8719 18.1106 16.1428 17.4286 16.1428C16.7466 16.1428 16.0925 15.8719 15.6103 15.3897C15.1281 14.9074 14.8572 14.2534 14.8572 13.5714C14.8572 12.8894 15.1281 12.2353 15.6103 11.7531C16.0925 11.2709 16.7466 10.9999 17.4286 10.9999C18.1106 10.9999 18.7646 11.2709 19.2469 11.7531C19.7291 12.2353 20 12.8894 20 13.5714ZM22.1429 18.9285C22.1429 20.5297 20.7963 22.1428 17.4286 22.1428C14.0609 22.1428 12.7143 20.5357 12.7143 18.9285V18.7528C12.7143 17.7842 13.4994 16.9999 14.468 16.9999H20.39C21.3586 16.9999 22.1429 17.7842 22.1429 18.7528V18.9285Z" fill="#565656"/>
</svg>
