<svg width="15" height="20" viewBox="0 0 15 20" fill="none" xmlns="http://www.w3.org/2000/svg">
<path d="M2.5 19C1.95 19 1.47917 18.8042 1.0875 18.4125C0.695833 18.0208 0.5 17.55 0.5 17V6C0.5 5.45 0.695833 4.97917 1.0875 4.5875C1.47917 4.19583 1.95 4 2.5 4H4.5V1C4.5 0.666667 4.65417 0.416667 4.9625 0.25C5.27083 0.0833333 5.61667 0 6 0H9C9.38333 0 9.72917 0.0833333 10.0375 0.25C10.3458 0.416667 10.5 0.666667 10.5 1V4H12.5C13.05 4 13.5208 4.19583 13.9125 4.5875C14.3042 4.97917 14.5 5.45 14.5 6V17C14.5 17.55 14.3042 18.0208 13.9125 18.4125C13.5208 18.8042 13.05 19 12.5 19C12.5 19.2833 12.4042 19.5208 12.2125 19.7125C12.0208 19.9042 11.7833 20 11.5 20C11.2167 20 10.9792 19.9042 10.7875 19.7125C10.5958 19.5208 10.5 19.2833 10.5 19H4.5C4.5 19.2833 4.40417 19.5208 4.2125 19.7125C4.02083 19.9042 3.78333 20 3.5 20C3.21667 20 2.97917 19.9042 2.7875 19.7125C2.59583 19.5208 2.5 19.2833 2.5 19ZM6 4H9V1.5H6V4ZM3.5 16H5V7H3.5V16ZM6.75 16H8.25V7H6.75V16ZM10 16H11.5V7H10V16Z" fill="#565656"/>
</svg>
