<svg width="192" height="192" viewBox="0 0 192 192" fill="none" xmlns="http://www.w3.org/2000/svg">
<g clip-path="url(#clip0_203_5467)">
<path d="M97.5653 88.6539C97.5426 88.6328 97.5127 88.6211 97.4816 88.6211C97.4505 88.6211 97.4205 88.6328 97.3978 88.6539C97.0511 88.9598 97.057 88.925 97.2303 89.1921C97.4263 89.1014 97.6174 89.0006 97.8029 88.8901L97.5653 88.6539Z" fill="#BE1E2D"/>
<path d="M97.4583 38.0376C104.817 38.0376 111.874 40.9431 117.077 46.115C122.28 51.2869 125.203 58.3015 125.203 65.6157V81.878H69.7134V65.6157C69.7134 58.3015 72.6365 51.2869 77.8397 46.115C83.0429 40.9431 90.0999 38.0376 97.4583 38.0376Z" fill="#F4F2F4"/>
<path d="M97.4583 126.003C90.1004 126.001 83.0443 123.095 77.8414 117.924C72.6385 112.752 69.7149 105.739 69.7134 98.4248V84.4412H78.0748V98.4248C78.1766 103.467 80.263 108.268 83.8863 111.798C87.5096 115.328 92.3809 117.306 97.4544 117.306C102.528 117.306 107.399 115.328 111.023 111.798C114.646 108.268 116.732 103.467 116.834 98.4248V84.4412H125.196V98.4248C125.195 105.738 122.273 112.751 117.071 117.922C111.87 123.094 104.815 126 97.4583 126.003Z" fill="#FFB940"/>
<path fill-rule="evenodd" clip-rule="evenodd" d="M110.718 69.9427H106.811C107.627 71.2204 108.192 72.8757 108.313 75.4079C108.989 75.5202 109.337 76.1591 109.337 76.7631V77.7698H109.852V79.367H110.783V82.2884H111.636V72.0277L113.112 69.9388L110.718 69.9427Z" fill="url(#paint0_linear_203_5467)"/>
<path fill-rule="evenodd" clip-rule="evenodd" d="M109.705 54.5283C109.705 54.2401 109.607 53.9605 109.427 53.7344C109.247 53.5083 108.996 53.3488 108.714 53.2815V50.9913C108.713 50.8092 108.646 50.6335 108.525 50.4969C108.404 50.3602 108.237 50.2717 108.056 50.2478V49.8839C108.056 49.6801 107.986 49.4823 107.858 49.3233C107.73 49.1642 107.551 49.0533 107.351 49.0088L107.314 48.3796C107.375 48.3629 107.429 48.3272 107.469 48.2778C107.508 48.2284 107.531 48.1678 107.534 48.1047C107.526 48.0353 107.496 47.9701 107.449 47.9189C107.401 47.8676 107.338 47.833 107.269 47.8201L107.255 47.6265L107.15 46.1784L107.045 47.6265L107.031 47.8201C106.962 47.833 106.899 47.8676 106.852 47.9189C106.804 47.9701 106.774 48.0353 106.766 48.1047C106.77 48.168 106.793 48.2285 106.834 48.2776C106.874 48.3267 106.929 48.3617 106.99 48.3777L106.953 49.0069C106.753 49.0513 106.574 49.1622 106.446 49.3213C106.318 49.4804 106.248 49.6781 106.248 49.8819V50.2459C106.067 50.2698 105.9 50.3582 105.779 50.4949C105.658 50.6316 105.591 50.8072 105.59 50.9893V53.2815C105.308 53.3488 105.057 53.5083 104.877 53.7344C104.697 53.9605 104.599 54.2401 104.599 54.5283V63.2054H109.705V54.5283ZM106.219 58.6558H105.401V56.4294C105.401 56.3216 105.444 56.2182 105.521 56.142C105.598 56.0657 105.702 56.0229 105.81 56.0229C105.919 56.0229 106.023 56.0657 106.099 56.142C106.176 56.2182 106.219 56.3216 106.219 56.4294V58.6558ZM106.784 52.3135C106.78 52.2639 106.787 52.214 106.804 52.1671C106.82 52.1201 106.846 52.0771 106.88 52.0406C106.914 52.0042 106.956 51.9751 107.002 51.9552C107.048 51.9353 107.097 51.9251 107.147 51.9251C107.197 51.9251 107.247 51.9353 107.293 51.9552C107.339 51.9751 107.38 52.0042 107.414 52.0406C107.448 52.0771 107.474 52.1201 107.491 52.1671C107.507 52.214 107.514 52.2639 107.51 52.3135V53.2815H106.784V52.3135ZM106.739 58.6558V56.4294C106.739 56.3216 106.782 56.2182 106.859 56.142C106.936 56.0657 107.04 56.0229 107.148 56.0229C107.257 56.0229 107.361 56.0657 107.437 56.142C107.514 56.2182 107.557 56.3216 107.557 56.4294V58.6558H106.739ZM108.901 58.6558H108.083V56.4294C108.083 56.3216 108.126 56.2182 108.203 56.142C108.28 56.0657 108.384 56.0229 108.492 56.0229C108.601 56.0229 108.705 56.0657 108.781 56.142C108.858 56.2182 108.901 56.3216 108.901 56.4294V58.6558Z" fill="url(#paint1_linear_203_5467)"/>
<path fill-rule="evenodd" clip-rule="evenodd" d="M104.044 67.2903C104.947 67.8479 105.748 68.5543 106.412 69.3793H110.257V65.1298L111.195 63.7746H103.105L104.044 65.1298V67.2903Z" fill="url(#paint2_linear_203_5467)"/>
<path fill-rule="evenodd" clip-rule="evenodd" d="M113.194 69.9426L111.717 72.0316V82.2961H111.318V72.0316L112.794 69.9426H113.194Z" fill="#242424"/>
<path fill-rule="evenodd" clip-rule="evenodd" d="M108.792 53.2815V50.9932C108.792 50.8108 108.725 50.6347 108.604 50.4976C108.483 50.3605 108.316 50.2718 108.134 50.2478V49.8839C108.134 49.6803 108.064 49.4829 107.936 49.3241C107.807 49.1653 107.629 49.0548 107.429 49.0108L107.392 48.3796C107.453 48.3635 107.508 48.3281 107.548 48.2786C107.588 48.2291 107.611 48.1681 107.614 48.1047C107.606 48.0355 107.577 47.9704 107.53 47.9191C107.482 47.8678 107.419 47.8331 107.351 47.8201L107.335 47.6265L107.232 46.1784L107.127 47.6265L107.113 47.8201C107.085 47.8279 107.057 47.8389 107.031 47.853C107.085 47.8721 107.131 47.9059 107.166 47.9505C107.2 47.9951 107.221 48.0486 107.226 48.1047C107.224 48.1607 107.206 48.2148 107.173 48.2605C107.14 48.3062 107.095 48.3416 107.043 48.3622L107.082 48.3777L107.045 49.0088C107.244 49.0533 107.423 49.164 107.551 49.3227C107.678 49.4814 107.748 49.6786 107.748 49.8819V50.2459C107.93 50.2698 108.097 50.3586 108.218 50.4957C108.339 50.6327 108.406 50.8088 108.406 50.9913V53.2815C108.688 53.3488 108.939 53.5083 109.119 53.7344C109.299 53.9605 109.397 54.2401 109.398 54.5283V63.2054H109.787V54.5283C109.786 54.2396 109.688 53.9596 109.507 53.7334C109.327 53.5072 109.075 53.3481 108.792 53.2815Z" fill="#242424"/>
<path fill-rule="evenodd" clip-rule="evenodd" d="M111.277 63.7766L110.338 65.1298V69.3793H109.939V65.1298L110.878 63.7766H111.277Z" fill="#242424"/>
<path fill-rule="evenodd" clip-rule="evenodd" d="M106.186 79.4677L109.39 79.3825V78.2074L106.186 78.1938V77.8918L108.878 77.766V76.9703C108.878 76.3585 108.607 75.7661 107.851 75.7661C107.725 73.0673 107.092 71.2746 106.186 69.9736V69.9446C104.123 67.0135 100.668 66.5915 98.5063 63.8385H96.4612C94.2993 66.5915 90.8421 67.0135 88.7814 69.9446V69.9814C87.8758 71.2824 87.2428 73.079 87.1142 75.7738C86.3585 75.7738 86.0878 76.3663 86.0878 76.978V77.7795L88.7814 77.9054V78.2074L85.5755 78.2209V79.3961L88.7814 79.4813V79.7813H84.6426V82.2981H110.323V79.7813H106.186V79.4677ZM98.3661 65.0117C98.9 65.912 99.5133 66.7633 100.199 67.5556C101.776 69.4006 103.379 71.2727 103.687 75.7371L103.356 75.7584C103.056 71.4101 101.492 69.5806 99.9515 67.7821C99.2042 66.9259 98.5445 65.9979 97.9824 65.0117H98.3661ZM97.3163 65.0117H97.6474V75.7603H97.3163V65.0117ZM91.2784 75.7371C91.592 71.2785 93.1871 69.4006 94.7648 67.5614C95.4509 66.7696 96.0643 65.9182 96.5976 65.0175H96.9871C96.4236 66.0033 95.7633 66.9313 95.016 67.7879C93.4754 69.5864 91.9114 71.4159 91.6114 75.7642L91.2784 75.7371Z" fill="#0D9543"/>
<path fill-rule="evenodd" clip-rule="evenodd" d="M98.3775 63.399C98.3772 63.2137 98.3139 63.0339 98.198 62.8888C98.082 62.7437 97.9202 62.6418 97.7387 62.5995L97.688 61.8928C97.7709 61.8699 97.8445 61.822 97.8989 61.7558C97.9533 61.6896 97.9858 61.6083 97.9919 61.5231C97.9841 61.4281 97.9446 61.3384 97.8796 61.2682C97.8147 61.1981 97.7281 61.1515 97.6335 61.1359L97.614 60.8822L97.4718 58.9153L97.3297 60.8822L97.3102 61.1359C97.2156 61.1515 97.129 61.1981 97.064 61.2682C96.9991 61.3384 96.9596 61.4281 96.9518 61.5231C96.9579 61.6083 96.9904 61.6896 97.0448 61.7558C97.0991 61.822 97.1728 61.8699 97.2556 61.8928L97.205 62.5995C97.0235 62.6418 96.8617 62.7437 96.7457 62.8888C96.6298 63.0339 96.5665 63.2137 96.5662 63.399H98.3775Z" fill="#0D9543"/>
<path fill-rule="evenodd" clip-rule="evenodd" d="M97.4954 80.5267L97.4934 81.152L97.4915 83.0357L97.4798 90.737L97.4915 98.268H80.7607V80.0504L97.4233 72.6859L97.4564 72.6975L97.4584 74.8678L97.4623 77.1406L97.4642 80.0659L97.4661 80.515L97.4954 80.5267Z" fill="url(#paint3_linear_203_5467)"/>
<path fill-rule="evenodd" clip-rule="evenodd" d="M114.156 80.0504V98.268H97.4272L97.437 90.737L97.4272 83.0105L97.4253 81.1249L97.4233 80.5267L97.4506 80.515L97.4526 80.0601L97.4564 77.1387L97.4584 74.8678L97.4623 72.6975L97.4954 72.6859L114.156 80.0504Z" fill="#242424"/>
<path fill-rule="evenodd" clip-rule="evenodd" d="M80.7627 83.7675L97.4233 77.1251V80.0368L80.7627 86.6986V83.7675Z" fill="white"/>
<path fill-rule="evenodd" clip-rule="evenodd" d="M94.5271 82.2632V84.1411L97.4233 82.9795V81.1036L94.5271 82.2632ZM88.4249 84.6948V86.5824L91.8061 85.2272V83.3396L88.4249 84.6948ZM81.8027 87.3374V89.2308L85.6981 87.6724V85.7809L81.8027 87.3374Z" fill="white"/>
<path fill-rule="evenodd" clip-rule="evenodd" d="M86.9193 85.3376L86.3389 86.4721L87.1647 87.1264L87.7432 85.9106L86.9193 85.3376Z" fill="white"/>
<path fill-rule="evenodd" clip-rule="evenodd" d="M93.0702 82.9447L92.4878 84.0792L93.3156 84.7336L93.8921 83.5197L93.0702 82.9447Z" fill="white"/>
<path fill-rule="evenodd" clip-rule="evenodd" d="M114.154 83.7965L97.4233 77.1251V80.0485L114.154 86.7392V83.7965Z" fill="white"/>
<path fill-rule="evenodd" clip-rule="evenodd" d="M97.4935 81.152L97.4253 81.1249V83.0086L97.4896 83.0338L100.329 84.1702V82.2826L97.4935 81.152ZM103.064 83.3745V85.2756L106.461 86.6308V84.7336L103.064 83.3745ZM109.195 85.8158V87.7169L113.112 89.2831V87.3781L109.195 85.8158Z" fill="white"/>
<path fill-rule="evenodd" clip-rule="evenodd" d="M107.97 85.3724L108.554 86.5108L107.725 87.1671L107.144 85.9474L107.97 85.3724Z" fill="white"/>
<path fill-rule="evenodd" clip-rule="evenodd" d="M101.794 82.9699L102.378 84.1083L101.548 84.7665L100.968 83.5468L101.794 82.9699Z" fill="white"/>
<path d="M121.401 88.2183H120.642V91.3662H121.401V88.2183Z" fill="#242424"/>
<path d="M94.0361 121.984C91.7564 121.659 89.5363 121.007 87.4451 120.048L87.7645 119.363C89.7883 120.29 91.937 120.92 94.1432 121.233L94.0361 121.984ZM100.906 121.984L100.798 121.237C103.004 120.918 105.152 120.282 107.173 119.349L107.493 120.036C105.403 120.998 103.184 121.652 100.906 121.98V121.984ZM81.6838 116.329C79.9522 114.821 78.4475 113.074 77.2158 111.14L77.8566 110.736C79.0491 112.611 80.5066 114.306 82.1843 115.769L81.6838 116.329ZM113.252 116.313L112.752 115.744C114.428 114.281 115.883 112.586 117.073 110.711L117.716 111.115C116.486 113.051 114.982 114.802 113.252 116.313ZM74.413 104.905C73.8157 102.796 73.5136 100.616 73.5151 98.4249V98.1383H74.2747V98.4249C74.2732 100.546 74.5655 102.657 75.1434 104.699L74.413 104.905ZM120.511 104.879L119.779 104.674C120.353 102.64 120.643 100.537 120.642 98.4249V98.1132H121.401V98.4249C121.402 100.607 121.103 102.778 120.511 104.879Z" fill="#242424"/>
<path d="M74.2747 88.2183H73.5151V91.3662H74.2747V88.2183Z" fill="#242424"/>
<path fill-rule="evenodd" clip-rule="evenodd" d="M80.9614 100.922C81.5776 104.831 83.5784 108.393 86.6032 110.965C89.628 113.537 93.4778 114.951 97.4584 114.95C101.439 114.95 105.289 113.537 108.313 110.965C111.338 108.393 113.339 104.831 113.955 100.922H80.9614Z" fill="#FFB940"/>
<path d="M21.6695 148.819C22.1116 148.29 22.1116 147.587 22.1116 147.008V142.228C22.1116 141.665 22.1116 141.278 22.359 140.962C22.6063 140.647 23.0134 140.488 23.7029 140.488C24.3924 140.488 24.7994 140.647 25.0468 140.962C25.2941 141.278 25.2941 141.665 25.2941 142.228V146.85C25.2941 148.079 25.2941 149.415 24.2852 150.611C23.5432 151.488 22.3239 152.174 20.0782 152.174C17.8325 152.174 16.6055 151.486 15.8595 150.611C14.8525 149.415 14.8525 148.079 14.8525 146.85V142.228C14.8525 141.665 14.8525 141.278 15.0999 140.962C15.3473 140.647 15.7543 140.488 16.4633 140.488C17.1722 140.488 17.5774 140.647 17.8267 140.962C18.076 141.278 18.074 141.665 18.074 142.228V147.008C18.074 147.589 18.074 148.29 18.5162 148.819C18.8161 149.186 19.3128 149.415 20.0899 149.415C20.867 149.415 21.3598 149.186 21.6695 148.819Z" fill="#FFB940"/>
<path d="M36.8207 142.298C37.4206 141.067 37.8977 140.488 39.1579 140.488C39.7422 140.488 40.1999 140.61 40.5213 140.98C40.8037 141.315 40.8563 141.665 40.9284 142.385L41.7074 150.311C41.725 150.522 41.7425 150.786 41.7425 150.927C41.7425 151.664 41.2653 152.052 40.1843 152.052C39.0352 152.052 38.5755 151.612 38.5054 150.768L38.1159 145.163L36.1137 149.938C35.8468 150.551 35.5118 151.026 34.575 151.026C33.6381 151.026 33.3187 150.551 33.0538 149.938L31.0555 145.144L30.6504 150.758C30.5783 151.568 30.1732 152.042 29.0065 152.042C28.0151 152.042 27.4854 151.707 27.4854 150.88C27.4854 150.722 27.5029 150.493 27.5379 150.16L28.3326 142.387C28.4047 141.632 28.4573 141.226 28.8293 140.895C29.1117 140.631 29.5363 140.49 30.1927 140.49C31.4996 140.49 31.9787 141.051 32.5786 142.3L34.6821 146.675L36.8207 142.298Z" fill="#FFB940"/>
<path d="M47.1512 150.311C47.1512 150.875 47.1512 151.26 46.9214 151.577C46.6915 151.895 46.3039 152.052 45.632 152.052C44.96 152.052 44.5705 151.893 44.3407 151.577C44.1108 151.262 44.1108 150.875 44.1108 150.311V142.457C44.1108 141.824 44.1108 141.067 45.2425 140.715C45.7547 140.556 46.5162 140.451 47.7004 140.451C48.6743 140.451 49.7514 140.521 50.7408 140.978C51.962 141.541 52.6885 142.577 52.6885 144.089C52.6885 145.494 52.0516 146.584 50.8849 147.235L53.3235 150.451C53.8902 151.206 53.5357 152.05 52.0165 152.05C50.8479 152.05 50.4077 151.558 49.8585 150.731L48.6392 148.904C48.3218 148.412 48.0725 147.936 48.0725 147.936H47.1531L47.1512 150.311ZM47.1512 145.514C47.1512 145.514 47.4005 145.531 47.6479 145.531C48.9548 145.531 49.469 145.022 49.469 144.267C49.469 143.388 48.7795 143.105 47.8582 143.105C47.6215 143.106 47.3852 143.124 47.1512 143.16V145.514Z" fill="#FFB940"/>
<path d="M62.3278 149.697H58.3857L58.0682 150.574C57.6962 151.595 57.254 152.052 56.14 152.052C55.133 152.052 54.761 151.682 54.761 151.12C54.7713 150.857 54.8377 150.599 54.9558 150.363L58.5629 141.859C58.9349 140.962 59.3576 140.488 60.4892 140.488C61.6208 140.488 62.0103 140.98 62.3648 141.859L65.8473 150.377C65.9395 150.601 65.9935 150.838 66.007 151.08C66.007 151.711 65.5103 152.048 64.5034 152.048C63.4419 152.048 63.0718 151.678 62.6647 150.588L62.3278 149.697ZM59.2699 147.272H61.463L60.3665 144.323L59.2699 147.272Z" fill="#FFB940"/>
<path d="M78.1098 150.311C78.1098 150.875 78.1098 151.26 77.8624 151.577C77.6151 151.895 77.208 152.052 76.499 152.052C75.7901 152.052 75.385 151.893 75.1357 151.577C74.8864 151.262 74.8883 150.875 74.8883 150.311V147.43H70.7903V150.311C70.7903 150.875 70.7903 151.26 70.543 151.577C70.2956 151.895 69.8886 152.052 69.1796 152.052C68.4706 152.052 68.0655 151.893 67.8162 151.577C67.5669 151.262 67.5688 150.875 67.5688 150.311V142.228C67.5688 141.665 67.5688 141.278 67.8162 140.962C68.0636 140.647 68.4706 140.488 69.1796 140.488C69.8886 140.488 70.2937 140.647 70.543 140.962C70.7923 141.278 70.7903 141.665 70.7903 142.228V144.6H74.8922V142.228C74.8922 141.665 74.8922 141.278 75.1395 140.962C75.3869 140.647 75.794 140.488 76.5029 140.488C77.2119 140.488 77.617 140.647 77.8663 140.962C78.1156 141.278 78.1137 141.665 78.1137 142.228L78.1098 150.311Z" fill="#FFB940"/>
<path d="M89.6539 148.238C89.3364 148.238 89.0696 148.22 89.0696 148.22V150.311C89.0696 150.875 89.0696 151.26 88.8222 151.577C88.5749 151.895 88.1853 152.052 87.4959 152.052C86.8064 152.052 86.3993 151.893 86.1695 151.577C85.9396 151.262 85.9221 150.875 85.9221 150.311V142.44C85.9221 141.806 85.9221 141.121 86.9291 140.751C87.4433 140.558 88.273 140.453 89.3345 140.453C90.4836 140.453 91.8451 140.575 92.9416 141.243C93.9661 141.876 94.5855 142.86 94.5855 144.284C94.5874 146.919 92.4664 148.238 89.6539 148.238ZM89.0696 145.795C89.2334 145.818 89.3988 145.83 89.5643 145.829C90.5382 145.829 91.3679 145.442 91.3679 144.441C91.3679 143.528 90.6609 143.105 89.6344 143.105C89.4456 143.106 89.2569 143.118 89.0696 143.142V145.795Z" fill="black"/>
<path d="M102.11 149.697H98.1576L97.8382 150.574C97.4681 151.595 97.026 152.052 95.9119 152.052C94.903 152.052 94.533 151.682 94.533 151.12C94.5423 150.857 94.6087 150.599 94.7277 150.363L98.3329 141.859C98.7049 140.962 99.1295 140.488 100.261 140.488C101.393 140.488 101.782 140.98 102.135 141.859L105.617 150.377C105.71 150.601 105.764 150.838 105.777 151.08C105.777 151.711 105.282 152.048 104.273 152.048C103.214 152.048 102.842 151.678 102.435 150.588L102.11 149.697ZM99.0516 147.272H101.233L100.136 144.323L99.0516 147.272Z" fill="black"/>
<path d="M113.096 145.655C114.016 146.269 114.795 147.148 114.795 148.59C114.795 150.84 112.866 152.139 110.51 152.139C109.68 152.143 108.86 151.969 108.104 151.63C107.504 151.349 106.99 150.979 106.99 150.274C106.99 149.606 107.45 148.726 108.264 148.726C109.006 148.726 109.573 149.463 110.527 149.463C111.164 149.463 111.569 149.148 111.569 148.708C111.569 148.164 110.952 147.829 110.19 147.427C108.883 146.741 107.097 145.915 107.097 143.859C107.097 141.729 108.954 140.374 111.234 140.374C112.826 140.374 114.594 141.042 114.594 142.203C114.594 142.869 114.01 143.679 113.25 143.679C112.596 143.679 111.959 143.063 111.164 143.063C110.632 143.063 110.315 143.346 110.315 143.679C110.321 144.406 111.824 144.794 113.096 145.655Z" fill="black"/>
<path d="M122.311 145.655C123.23 146.269 124.009 147.148 124.009 148.59C124.009 150.84 122.081 152.139 119.724 152.139C118.895 152.143 118.075 151.969 117.319 151.63C116.719 151.349 116.205 150.979 116.205 150.274C116.205 149.606 116.664 148.726 117.479 148.726C118.221 148.726 118.787 149.463 119.742 149.463C120.379 149.463 120.786 149.148 120.786 148.708C120.786 148.164 120.166 147.829 119.405 147.427C118.098 146.741 116.312 145.915 116.312 143.859C116.312 141.729 118.168 140.374 120.449 140.374C122.04 140.374 123.809 141.042 123.809 142.203C123.809 142.869 123.224 143.679 122.465 143.679C121.81 143.679 121.173 143.063 120.379 143.063C119.847 143.063 119.53 143.346 119.53 143.679C119.535 144.406 121.039 144.794 122.311 145.655Z" fill="black"/>
<path d="M129.198 144.71H130.859C131.424 144.71 131.814 144.71 132.133 144.919C132.453 145.129 132.61 145.465 132.61 146.064C132.61 146.662 132.451 146.977 132.133 147.187C131.816 147.396 131.424 147.398 130.859 147.398H129.198V149.279H131.849C132.416 149.279 132.805 149.279 133.123 149.49C133.44 149.701 133.6 150.034 133.6 150.633C133.6 151.231 133.44 151.546 133.123 151.757C132.805 151.968 132.416 151.968 131.849 151.968H127.642C126.545 151.968 126.138 151.564 126.138 150.474V142.105C126.138 141.015 126.545 140.61 127.642 140.61H131.537C132.102 140.61 132.492 140.61 132.811 140.821C133.13 141.032 133.288 141.367 133.288 141.963C133.288 142.56 133.128 142.877 132.811 143.088C132.494 143.299 132.102 143.299 131.537 143.299H129.2L129.198 144.71Z" fill="black"/>
<path d="M138.831 150.311C138.831 150.875 138.831 151.26 138.584 151.577C138.337 151.895 137.965 152.052 137.275 152.052C136.586 152.052 136.196 151.893 135.966 151.577C135.737 151.262 135.719 150.875 135.719 150.311V141.717C135.719 140.962 136.268 140.488 137.452 140.488C138.672 140.488 139.131 140.962 139.573 141.543L143.498 146.884V142.228C143.498 141.665 143.498 141.278 143.745 140.962C143.993 140.647 144.365 140.488 145.054 140.488C145.744 140.488 146.133 140.647 146.363 140.962C146.593 141.278 146.611 141.665 146.611 142.228V150.84C146.611 151.682 146.063 152.104 145.107 152.104C144.151 152.104 143.658 151.699 143.198 151.103L138.831 145.427V150.311Z" fill="black"/>
<path d="M159.082 149.889C159.082 150.716 158.922 151.155 157.913 151.577C156.925 151.954 155.876 152.145 154.818 152.139C151.46 152.139 148.737 150.172 148.737 146.286C148.737 142.139 151.813 140.382 154.908 140.382C155.969 140.382 157.118 140.593 157.93 141.015C158.497 141.315 158.867 141.7 158.867 142.316C158.867 142.966 158.443 143.95 157.56 143.95C157.188 143.95 156.834 143.793 156.409 143.617C155.903 143.39 155.355 143.27 154.8 143.264C153.334 143.264 151.99 144.108 151.99 146.269C151.99 148.379 153.281 149.345 154.818 149.345C155.172 149.349 155.525 149.296 155.862 149.186V148.389C155.862 147.825 155.862 147.44 156.109 147.123C156.357 146.805 156.764 146.648 157.473 146.648C158.182 146.648 158.587 146.807 158.836 147.123C159.085 147.438 159.083 147.825 159.083 148.389L159.082 149.889Z" fill="black"/>
<path d="M164.473 144.71H166.134C166.701 144.71 167.088 144.71 167.408 144.919C167.727 145.129 167.885 145.465 167.885 146.064C167.885 146.662 167.725 146.977 167.408 147.187C167.09 147.396 166.701 147.398 166.134 147.398H164.473V149.279H167.124C167.69 149.279 168.08 149.279 168.397 149.49C168.715 149.701 168.874 150.034 168.874 150.633C168.874 151.231 168.715 151.546 168.397 151.757C168.08 151.968 167.69 151.968 167.124 151.968H162.916C161.82 151.968 161.413 151.564 161.413 150.474V142.105C161.413 141.015 161.82 140.61 162.916 140.61H166.812C167.379 140.61 167.766 140.61 168.086 140.821C168.405 141.032 168.563 141.367 168.563 141.963C168.563 142.56 168.403 142.877 168.086 143.088C167.768 143.299 167.379 143.299 166.812 143.299H164.475L164.473 144.71Z" fill="black"/>
<path d="M174.036 150.311C174.036 150.875 174.036 151.26 173.806 151.577C173.576 151.895 173.187 152.052 172.515 152.052C171.843 152.052 171.453 151.893 171.223 151.577C170.994 151.262 170.994 150.875 170.994 150.311V142.457C170.994 141.824 170.994 141.067 172.125 140.715C172.639 140.556 173.399 140.451 174.583 140.451C175.557 140.451 176.634 140.521 177.624 140.978C178.845 141.541 179.571 142.577 179.571 144.089C179.571 145.494 178.934 146.584 177.768 147.235L180.212 150.453C180.777 151.208 180.424 152.052 178.903 152.052C177.735 152.052 177.294 151.56 176.745 150.733L175.526 148.906C175.208 148.414 174.961 147.938 174.961 147.938H174.042L174.036 150.311ZM174.036 145.514C174.036 145.514 174.283 145.531 174.531 145.531C175.84 145.531 176.352 145.022 176.352 144.267C176.352 143.388 175.662 143.105 174.743 143.105C174.506 143.106 174.27 143.124 174.036 143.16V145.514Z" fill="black"/>
<path d="M70.5157 68.4171C70.5468 68.6632 70.6043 68.9053 70.6871 69.1392C70.6871 72.3065 70.6676 73.9134 70.652 74.6994C70.652 74.8639 70.652 74.9917 70.652 75.0866C70.652 75.3189 70.6403 75.3905 70.6403 75.3905C70.3482 76.254 70.5936 77.9325 70.6403 78.0835C70.6556 78.2393 70.6998 78.3909 70.7708 78.5307C70.9013 78.8249 71.1273 78.8772 71.5051 79.1908C71.883 79.5045 72.8977 79.669 72.8977 79.669H74.9058C74.9058 79.669 75.9206 79.5045 76.2984 79.1908C76.6763 78.8772 76.9041 78.8249 77.0346 78.5307C77.1047 78.3907 77.1482 78.2391 77.1632 78.0835C77.2099 77.9325 77.4553 76.254 77.1632 75.3905C77.1632 75.3905 77.1632 75.3227 77.1515 75.0866C77.1515 74.9878 77.1515 74.86 77.1418 74.6994C77.1281 73.925 77.1106 72.32 77.1106 69.1373C77.5177 68.0163 77.3521 65.4221 76.9704 65.0717C76.6908 64.8448 76.3773 64.6626 76.0413 64.5316C75.6329 64.4251 75.2145 64.3602 74.7928 64.338C73.2639 64.3128 71.7447 64.216 70.8351 65.0736C70.6111 65.2827 70.6404 65.6428 70.5157 66.2101C70.4352 66.9436 70.4352 67.6836 70.5157 68.4171ZM76.7483 74.5755C76.6495 74.345 76.5726 74.1058 76.5185 73.8611C76.2419 72.6646 76.2887 72.4478 76.2887 71.5379C76.2881 71.5209 76.2922 71.5041 76.3005 71.4893C76.3088 71.4745 76.3211 71.4622 76.336 71.4538C76.3508 71.4455 76.3677 71.4413 76.3848 71.4418C76.4018 71.4423 76.4185 71.4474 76.4328 71.4566L76.7074 71.6502C76.7204 71.6594 76.7309 71.6716 76.7381 71.6858C76.7452 71.7 76.7487 71.7156 76.7483 71.7315V74.5755ZM76.7483 68.5061V70.9494C76.7495 70.9627 76.7475 70.9761 76.7425 70.9886C76.7376 71.001 76.7298 71.0122 76.7198 71.0212C76.7098 71.0302 76.6979 71.0368 76.6849 71.0404C76.672 71.0441 76.6584 71.0447 76.6451 71.0423L76.353 70.9668C76.3333 70.9612 76.316 70.9491 76.304 70.9327C76.292 70.9162 76.2859 70.8961 76.2867 70.8758C76.2711 69.2147 76.2341 68.3338 76.4815 68.4093C76.6042 68.4093 76.7444 68.3803 76.7444 68.5061H76.7483ZM76.2361 66.8973C76.2367 66.7152 76.2931 66.5376 76.3977 66.3882C76.5789 66.1307 76.5925 66.847 76.6685 67.7782L76.2322 68.239C76.2322 68.239 76.2166 67.1432 76.2322 66.8973H76.2361ZM71.8577 65.1182C72.068 64.9846 72.6095 64.671 72.9912 64.6651C73.2717 64.6651 74.5942 64.6651 74.8045 64.6651C75.1941 64.6651 75.7277 64.9846 75.9381 65.1182C76.0725 65.2014 76.016 65.3505 75.9926 65.699C75.9903 65.7237 75.9828 65.7476 75.9708 65.7694C75.9588 65.7911 75.9425 65.8102 75.9228 65.8254C75.9031 65.8406 75.8804 65.8517 75.8563 65.8579C75.8321 65.8641 75.8069 65.8654 75.7823 65.8616C74.7279 65.7309 73.663 65.7063 72.6036 65.788L72.0193 65.8616C71.9948 65.8654 71.9697 65.8641 71.9456 65.8579C71.9216 65.8517 71.8991 65.8406 71.8796 65.8253C71.86 65.8101 71.8438 65.791 71.832 65.7692C71.8202 65.7475 71.813 65.7236 71.8109 65.699L71.7817 65.2789C71.7776 65.2481 71.7822 65.2168 71.795 65.1884C71.8077 65.1601 71.828 65.1358 71.8538 65.1182H71.8577ZM71.9882 73.2493C72.6621 73.4313 74.1423 73.4429 75.2019 73.35C75.4064 73.3349 75.6092 73.3012 75.8076 73.2493C75.8492 73.2385 75.8926 73.2362 75.9351 73.2426C75.9777 73.249 76.0184 73.264 76.0549 73.2867C76.0914 73.3094 76.1228 73.3392 76.1473 73.3744C76.1718 73.4096 76.1887 73.4494 76.1971 73.4913L76.5633 75.6209C74.8323 76.2211 72.9479 76.2211 71.2169 75.6209L71.583 73.4913C71.5908 73.4477 71.6078 73.4062 71.6328 73.3696C71.6577 73.3329 71.6902 73.3019 71.7281 73.2785C71.7659 73.2551 71.8083 73.2399 71.8524 73.2339C71.8966 73.2279 71.9415 73.2311 71.9843 73.2435L71.9882 73.2493ZM71.0474 74.5813V71.7238C71.0475 71.708 71.0512 71.6925 71.0583 71.6783C71.0654 71.6642 71.0757 71.652 71.0883 71.6424L71.3629 71.4488C71.3773 71.4391 71.3941 71.4335 71.4115 71.4328C71.4289 71.432 71.4461 71.4361 71.4613 71.4445C71.4765 71.453 71.489 71.4655 71.4974 71.4806C71.5059 71.4957 71.5099 71.5129 71.509 71.5302C71.509 71.5747 71.509 72.5775 71.509 72.6221C71.3824 73.3713 71.2539 74.1244 71.0435 74.5755L71.0474 74.5813ZM71.398 66.394C71.5928 66.667 71.5811 66.8199 71.5616 68.2506L71.1273 67.784C71.1974 66.847 71.2149 66.1307 71.3941 66.3882L71.398 66.394ZM71.1331 68.4152H71.3143C71.5616 68.3397 71.5246 69.2205 71.509 70.8816C71.5102 70.902 71.5042 70.9222 71.4922 70.9388C71.4801 70.9553 71.4627 70.9673 71.4428 70.9726L71.1506 71.0481C71.1374 71.0505 71.1238 71.0499 71.1108 71.0462C71.0978 71.0426 71.0859 71.036 71.0759 71.027C71.0659 71.018 71.0582 71.0068 71.0532 70.9944C71.0483 70.9819 71.0463 70.9685 71.0474 70.9552C71.0435 68.4907 70.9909 68.4093 71.1292 68.4093L71.1331 68.4152Z" fill="#FFB940"/>
<path d="M75.7259 79.5006C76.0523 79.4159 76.3484 79.2422 76.5809 78.9992C76.5891 78.9923 76.5956 78.9836 76.5999 78.9739C76.6043 78.9642 76.6065 78.9537 76.6062 78.943C76.6062 78.8695 76.6062 78.7107 76.4913 78.7746C75.794 79.1773 75.5662 79.2373 75.5837 79.3399C75.6012 79.4425 75.6324 79.5335 75.7259 79.5006Z" fill="#242424"/>
<path d="M72.1791 79.4464C72.1752 79.4575 72.1691 79.4677 72.1612 79.4764C72.1533 79.4851 72.1437 79.4922 72.133 79.4973C72.1223 79.5023 72.1107 79.5052 72.0989 79.5058C72.0871 79.5063 72.0753 79.5046 72.0642 79.5006C71.7374 79.4154 71.4407 79.2419 71.2072 78.9992C71.1923 78.984 71.1833 78.9641 71.1819 78.943C71.1819 78.8695 71.1819 78.7107 71.2968 78.7746C72.2434 79.3205 72.2512 79.2121 72.1791 79.4464Z" fill="#242424"/>
<path d="M76.6743 74.8523L76.7191 75.0575C77.243 75.1794 77.6345 74.9858 77.6423 74.8348C77.6501 74.6838 77.73 74.5193 76.945 74.7535L76.6743 74.8523Z" fill="#242424"/>
<path d="M76.9178 71.7876C76.9096 71.7874 76.9014 71.7887 76.8938 71.7916C76.8861 71.7945 76.8791 71.7988 76.8731 71.8044C76.8672 71.81 76.8624 71.8167 76.859 71.8241C76.8556 71.8315 76.8538 71.8395 76.8535 71.8476V72.3045C76.8538 72.3124 76.8556 72.3202 76.8589 72.3274C76.8621 72.3345 76.8668 72.341 76.8726 72.3464C76.8784 72.3518 76.8852 72.356 76.8926 72.3588C76.9 72.3616 76.9079 72.3629 76.9158 72.3626C76.9239 72.3631 76.932 72.362 76.9397 72.3594C76.9473 72.3567 76.9544 72.3526 76.9604 72.3471C76.9664 72.3417 76.9712 72.3352 76.9746 72.3278C76.978 72.3205 76.9799 72.3126 76.9801 72.3045V71.8496C76.9801 71.8415 76.9785 71.8336 76.9753 71.8262C76.9722 71.8187 76.9676 71.812 76.9618 71.8064C76.9559 71.8008 76.949 71.7965 76.9415 71.7936C76.9339 71.7907 76.9259 71.7893 76.9178 71.7896V71.7876Z" fill="#242424"/>
<path d="M76.9178 68.783C76.9096 68.7827 76.9014 68.7841 76.8938 68.787C76.8861 68.7898 76.8791 68.7942 76.8731 68.7998C76.8672 68.8053 76.8624 68.812 76.859 68.8194C76.8556 68.8269 76.8538 68.8349 76.8535 68.843V69.296C76.8535 69.3041 76.8551 69.312 76.8583 69.3195C76.8614 69.3269 76.8661 69.3336 76.8719 69.3392C76.8777 69.3448 76.8846 69.3491 76.8921 69.352C76.8997 69.3549 76.9078 69.3563 76.9158 69.356C76.924 69.3563 76.9322 69.355 76.9399 69.3521C76.9475 69.3492 76.9545 69.3448 76.9605 69.3393C76.9665 69.3337 76.9713 69.327 76.9746 69.3196C76.978 69.3122 76.9799 69.3042 76.9801 69.296V68.843C76.9801 68.835 76.9785 68.827 76.9753 68.8196C76.9722 68.8122 76.9676 68.8055 76.9618 68.7999C76.9559 68.7943 76.949 68.7899 76.9415 68.787C76.9339 68.7841 76.9259 68.7827 76.9178 68.783Z" fill="#242424"/>
<path d="M71.1137 74.8523L71.0709 75.0575C70.545 75.1794 70.1555 74.9858 70.1477 74.8348C70.1399 74.6838 70.06 74.5193 70.845 74.7535L71.1137 74.8523Z" fill="#242424"/>
<path d="M75.6888 66.6011C75.4746 66.6011 75.5388 66.3688 75.5388 72.5794C75.5393 72.5984 75.5436 72.6171 75.5515 72.6344C75.5593 72.6518 75.5705 72.6674 75.5845 72.6803C75.5984 72.6933 75.6148 72.7034 75.6327 72.71C75.6507 72.7166 75.6697 72.7196 75.6888 72.7188C75.7272 72.7199 75.7645 72.7058 75.7926 72.6797C75.8207 72.6536 75.8372 72.6176 75.8388 72.5794C75.8388 66.2836 75.9011 66.6011 75.6888 66.6011Z" fill="#242424"/>
<path d="M72.1011 66.6011C72.3154 66.6011 72.2511 66.3688 72.2511 72.5794C72.2496 72.6176 72.233 72.6536 72.2049 72.6797C72.1769 72.7058 72.1396 72.7199 72.1011 72.7188C72.0821 72.7196 72.063 72.7166 72.0451 72.71C72.0272 72.7034 72.0108 72.6933 71.9968 72.6803C71.9829 72.6674 71.9716 72.6518 71.9638 72.6344C71.956 72.6171 71.9517 72.5984 71.9512 72.5794C71.9512 66.2836 71.8869 66.6011 72.1011 66.6011Z" fill="#242424"/>
<path d="M70.8721 71.7876C70.8802 71.7874 70.8883 71.7887 70.8958 71.7916C70.9034 71.7945 70.9103 71.7989 70.9161 71.8045C70.9219 71.8101 70.9265 71.8168 70.9297 71.8242C70.9328 71.8316 70.9345 71.8396 70.9345 71.8476V72.3045C70.9342 72.3126 70.9323 72.3205 70.9289 72.3278C70.9256 72.3352 70.9207 72.3417 70.9147 72.3471C70.9087 72.3526 70.9017 72.3567 70.894 72.3594C70.8864 72.362 70.8783 72.3631 70.8702 72.3626C70.8623 72.3629 70.8543 72.3616 70.8469 72.3588C70.8395 72.356 70.8327 72.3518 70.8269 72.3464C70.8211 72.341 70.8165 72.3345 70.8132 72.3274C70.8099 72.3202 70.8081 72.3124 70.8079 72.3045V71.8496C70.8081 71.8414 70.81 71.8334 70.8133 71.826C70.8167 71.8186 70.8215 71.8119 70.8275 71.8063C70.8335 71.8008 70.8405 71.7964 70.8481 71.7935C70.8558 71.7907 70.8639 71.7893 70.8721 71.7896V71.7876Z" fill="#242424"/>
<path d="M70.8721 68.783C70.8802 68.7827 70.8883 68.7841 70.8958 68.787C70.9034 68.7899 70.9103 68.7943 70.9161 68.7999C70.9219 68.8055 70.9265 68.8122 70.9297 68.8196C70.9328 68.827 70.9345 68.835 70.9345 68.843V69.296C70.9342 69.3042 70.9323 69.3122 70.929 69.3196C70.9256 69.327 70.9208 69.3337 70.9148 69.3393C70.9089 69.3448 70.9019 69.3492 70.8942 69.3521C70.8865 69.355 70.8784 69.3563 70.8702 69.356C70.8621 69.3563 70.854 69.3549 70.8465 69.352C70.8389 69.3491 70.832 69.3448 70.8262 69.3392C70.8204 69.3336 70.8158 69.3269 70.8126 69.3195C70.8095 69.312 70.8079 69.3041 70.8079 69.296V68.843C70.8081 68.8349 70.81 68.8269 70.8133 68.8194C70.8167 68.812 70.8215 68.8053 70.8275 68.7998C70.8335 68.7942 70.8405 68.7898 70.8481 68.787C70.8558 68.7841 70.8639 68.7827 70.8721 68.783Z" fill="#242424"/>
<path d="M71.398 64.9188C71.4126 64.9314 71.4313 64.9384 71.4506 64.9384C71.47 64.9384 71.4886 64.9314 71.5032 64.9188C71.7194 64.7252 71.7155 64.7484 71.6064 64.5819C71.4843 64.6402 71.3653 64.7048 71.25 64.7755L71.398 64.9188Z" fill="#BE1E2D"/>
<path d="M76.1446 64.7948C76.3666 64.9884 76.316 64.9884 76.5341 64.7716C76.4188 64.7009 76.2998 64.6363 76.1777 64.578C76.1309 64.6651 76.0706 64.729 76.1446 64.7948Z" fill="#BE1E2D"/>
<path d="M124.403 75.5725C124.371 75.3264 124.313 75.0844 124.229 74.8504C124.229 71.6831 124.249 70.0762 124.265 69.2902C124.265 69.1257 124.265 68.996 124.265 68.903C124.265 68.6707 124.276 68.5972 124.276 68.5972C124.568 67.7337 124.323 66.0571 124.276 65.9061C124.261 65.7503 124.217 65.5987 124.146 65.4589C124.017 65.1627 123.789 65.1124 123.411 64.7987C123.034 64.4851 122.019 64.3206 122.019 64.3206H120.028C120.028 64.3206 119.014 64.4832 118.636 64.7987C118.258 65.1143 118.03 65.1627 117.899 65.4589C117.829 65.5989 117.786 65.7505 117.771 65.9061C117.724 66.0571 117.479 67.7337 117.771 68.5972C117.771 68.5972 117.771 68.6668 117.783 68.903C117.783 69.0018 117.783 69.1295 117.792 69.2902C117.806 70.0646 117.825 71.6696 117.825 74.8523C117.418 75.9733 117.582 78.5655 117.966 78.9179C118.244 79.1446 118.557 79.3262 118.893 79.4561C119.301 79.5635 119.719 79.6284 120.141 79.6497C121.67 79.6749 123.189 79.7717 124.099 78.916C124.323 78.7069 124.294 78.3448 124.418 77.7776C124.494 77.0442 124.489 76.3048 124.403 75.5725ZM118.17 69.4141C118.269 69.6446 118.346 69.8838 118.4 70.1285C118.677 71.325 118.63 71.5418 118.63 72.4517C118.63 72.4687 118.626 72.4855 118.618 72.5003C118.61 72.5151 118.597 72.5274 118.583 72.5357C118.568 72.5441 118.551 72.5483 118.534 72.5478C118.517 72.5473 118.5 72.5422 118.486 72.533L118.211 72.3394C118.198 72.3303 118.187 72.3181 118.18 72.3039C118.173 72.2897 118.17 72.274 118.17 72.2581V69.4141ZM118.17 75.4834V73.0402C118.169 73.0269 118.171 73.0135 118.176 73.001C118.181 72.9886 118.189 72.9774 118.199 72.9684C118.209 72.9594 118.221 72.9528 118.234 72.9492C118.247 72.9455 118.26 72.9449 118.273 72.9473L118.566 73.0228C118.585 73.0283 118.602 73.0401 118.614 73.0562C118.626 73.0723 118.632 73.0918 118.632 73.1119C118.647 74.7749 118.684 75.6558 118.437 75.5783C118.312 75.5783 118.172 75.6074 118.172 75.4834H118.17ZM118.682 77.0923C118.683 77.2746 118.627 77.4526 118.521 77.6014C118.34 77.8589 118.326 77.1426 118.25 76.2094L118.682 75.7448C118.682 75.7448 118.7 76.8444 118.684 77.0923H118.682ZM123.061 78.8695C122.851 79.0031 122.309 79.3167 121.927 79.3244C121.647 79.3244 120.324 79.3244 120.114 79.3244C119.724 79.3244 119.191 79.0031 118.98 78.8695C118.846 78.7862 118.903 78.6391 118.926 78.2887C118.929 78.2642 118.936 78.2404 118.948 78.2189C118.96 78.1974 118.977 78.1785 118.996 78.1635C119.016 78.1485 119.039 78.1376 119.063 78.1315C119.087 78.1254 119.112 78.1242 119.136 78.128C120.191 78.2565 121.257 78.2812 122.317 78.2016L122.901 78.128C122.926 78.1242 122.95 78.1254 122.974 78.1315C122.998 78.1376 123.021 78.1486 123.04 78.1636C123.06 78.1787 123.076 78.1975 123.088 78.219C123.1 78.2405 123.107 78.2642 123.11 78.2887L123.139 78.7107C123.142 78.7416 123.137 78.7729 123.124 78.801C123.11 78.8291 123.089 78.8529 123.063 78.8695H123.061ZM122.93 70.7383C122.256 70.5583 120.776 70.5448 119.717 70.6377C119.512 70.6537 119.31 70.6874 119.111 70.7383C119.069 70.7489 119.026 70.7511 118.984 70.7446C118.942 70.7382 118.901 70.7233 118.865 70.7009C118.828 70.6785 118.797 70.649 118.772 70.6141C118.748 70.5793 118.73 70.5399 118.721 70.4983L118.355 68.3687C120.087 67.7705 121.97 67.7705 123.702 68.3687L123.335 70.4983C123.327 70.5419 123.31 70.5834 123.285 70.62C123.26 70.6566 123.227 70.6876 123.189 70.7108C123.151 70.734 123.109 70.7489 123.064 70.7547C123.02 70.7604 122.975 70.7569 122.932 70.7442L122.93 70.7383ZM123.871 69.4083V72.2581C123.871 72.2739 123.868 72.2896 123.861 72.3037C123.854 72.3179 123.843 72.3301 123.83 72.3394L123.556 72.533C123.541 72.5428 123.524 72.5483 123.507 72.5491C123.49 72.5499 123.472 72.5458 123.457 72.5373C123.442 72.5289 123.43 72.5164 123.421 72.5013C123.413 72.4861 123.409 72.469 123.409 72.4517C123.409 72.4072 123.409 71.4043 123.409 71.3598C123.534 70.6183 123.663 69.8633 123.873 69.4141L123.871 69.4083ZM123.521 77.5956C123.326 77.3207 123.337 77.1697 123.359 75.739L123.791 76.2036C123.729 77.1445 123.702 77.8589 123.522 77.6014L123.521 77.5956ZM123.785 75.5725H123.604C123.357 75.6499 123.394 74.7691 123.409 73.1061C123.409 73.086 123.415 73.0665 123.427 73.0504C123.439 73.0343 123.456 73.0225 123.476 73.017L123.768 72.9415C123.781 72.9391 123.795 72.9397 123.808 72.9434C123.821 72.947 123.833 72.9536 123.843 72.9626C123.853 72.9716 123.86 72.9827 123.865 72.9952C123.87 73.0077 123.872 73.0211 123.871 73.0344C123.873 75.4989 123.924 75.5783 123.787 75.5783L123.785 75.5725Z" fill="#FFB940"/>
<path d="M119.191 64.4871C118.864 64.5732 118.568 64.7474 118.336 64.9904C118.328 64.9976 118.322 65.0063 118.317 65.0159C118.313 65.0256 118.311 65.036 118.31 65.0466C118.31 65.1201 118.31 65.2789 118.425 65.215C119.122 64.8123 119.35 64.7503 119.333 64.6497C119.315 64.549 119.286 64.4541 119.191 64.4871Z" fill="#242424"/>
<path d="M122.738 64.5432C122.746 64.5207 122.762 64.5023 122.784 64.4918C122.805 64.4813 122.83 64.4796 122.852 64.487C123.179 64.5737 123.476 64.7478 123.709 64.9904C123.717 64.9976 123.723 65.0063 123.728 65.0159C123.732 65.0256 123.735 65.036 123.735 65.0465C123.735 65.1201 123.735 65.2789 123.62 65.215C122.673 64.6671 122.666 64.7774 122.738 64.5432Z" fill="#242424"/>
<path d="M118.242 69.1373L118.199 68.9321C117.673 68.8101 117.282 69.0037 117.276 69.1528C117.27 69.3018 117.186 69.4683 117.971 69.236L118.242 69.1373Z" fill="#242424"/>
<path d="M117.999 72.2C118.007 72.2002 118.015 72.1989 118.023 72.196C118.031 72.1931 118.038 72.1888 118.044 72.1832C118.049 72.1776 118.054 72.1709 118.058 72.1635C118.061 72.1561 118.063 72.1481 118.063 72.14V71.6869C118.063 71.6789 118.062 71.6709 118.058 71.6635C118.055 71.6561 118.051 71.6494 118.045 71.6438C118.039 71.6382 118.032 71.6338 118.025 71.6309C118.017 71.628 118.009 71.6267 118.001 71.6269C117.993 71.6267 117.984 71.628 117.977 71.6309C117.969 71.6338 117.962 71.6381 117.956 71.6437C117.95 71.6493 117.945 71.656 117.942 71.6634C117.939 71.6708 117.937 71.6788 117.937 71.6869V72.14C117.937 72.148 117.938 72.156 117.941 72.1634C117.944 72.1708 117.949 72.1775 117.955 72.1831C117.961 72.1887 117.968 72.1931 117.975 72.196C117.983 72.1989 117.991 72.2002 117.999 72.2Z" fill="#242424"/>
<path d="M117.999 75.2085C118.007 75.2088 118.015 75.2074 118.023 75.2046C118.031 75.2017 118.038 75.1973 118.044 75.1918C118.049 75.1862 118.054 75.1795 118.058 75.1721C118.061 75.1647 118.063 75.1566 118.063 75.1485V74.6955C118.063 74.6874 118.062 74.6795 118.058 74.6721C118.055 74.6647 118.051 74.6579 118.045 74.6523C118.039 74.6467 118.032 74.6424 118.025 74.6395C118.017 74.6366 118.009 74.6352 118.001 74.6355C117.993 74.6352 117.984 74.6366 117.977 74.6394C117.969 74.6423 117.962 74.6467 117.956 74.6522C117.95 74.6578 117.945 74.6645 117.942 74.6719C117.939 74.6793 117.937 74.6873 117.937 74.6955V75.1485C117.937 75.1566 117.938 75.1645 117.941 75.1719C117.944 75.1793 117.949 75.186 117.955 75.1916C117.961 75.1972 117.968 75.2016 117.975 75.2045C117.983 75.2074 117.991 75.2088 117.999 75.2085Z" fill="#242424"/>
<path d="M123.803 69.1373L123.846 68.9321C124.372 68.8101 124.761 69.0037 124.769 69.1528C124.777 69.3018 124.859 69.4683 124.074 69.236L123.803 69.1373Z" fill="#242424"/>
<path d="M119.228 77.3884C119.442 77.3884 119.378 77.6188 119.378 71.4101C119.377 71.391 119.373 71.3723 119.365 71.3548C119.357 71.3374 119.346 71.3217 119.332 71.3086C119.318 71.2954 119.302 71.2852 119.284 71.2784C119.266 71.2715 119.247 71.2683 119.228 71.2688C119.189 71.2683 119.152 71.2827 119.124 71.3091C119.096 71.3355 119.079 71.3718 119.078 71.4101C119.078 77.704 119.016 77.3884 119.228 77.3884Z" fill="#242424"/>
<path d="M122.815 77.3884C122.603 77.3884 122.666 77.6188 122.666 71.4101C122.667 71.3718 122.684 71.3355 122.712 71.3091C122.74 71.2827 122.777 71.2683 122.815 71.2688C122.835 71.2683 122.854 71.2715 122.872 71.2784C122.89 71.2852 122.906 71.2954 122.92 71.3086C122.934 71.3217 122.945 71.3374 122.953 71.3548C122.961 71.3723 122.965 71.391 122.965 71.4101C122.965 77.704 123.03 77.3884 122.815 77.3884Z" fill="#242424"/>
<path d="M124.045 72.2C124.036 72.2002 124.028 72.1989 124.021 72.196C124.013 72.1931 124.006 72.1887 124.001 72.1831C123.995 72.1775 123.99 72.1708 123.987 72.1634C123.984 72.156 123.982 72.148 123.982 72.14V71.6869C123.982 71.6788 123.984 71.6708 123.988 71.6634C123.991 71.656 123.996 71.6493 124.002 71.6437C124.008 71.6381 124.015 71.6338 124.022 71.6309C124.03 71.628 124.038 71.6267 124.046 71.6269C124.055 71.6267 124.063 71.628 124.07 71.6309C124.078 71.6338 124.085 71.6382 124.09 71.6438C124.096 71.6494 124.101 71.6561 124.104 71.6635C124.107 71.6709 124.109 71.6789 124.109 71.6869V72.14C124.109 72.1481 124.107 72.1561 124.103 72.1635C124.1 72.1709 124.095 72.1776 124.089 72.1832C124.083 72.1888 124.076 72.1931 124.069 72.196C124.061 72.1989 124.053 72.2002 124.045 72.2Z" fill="#242424"/>
<path d="M124.045 75.2085C124.036 75.2088 124.028 75.2074 124.021 75.2045C124.013 75.2016 124.006 75.1972 124.001 75.1916C123.995 75.186 123.99 75.1793 123.987 75.1719C123.984 75.1645 123.982 75.1566 123.982 75.1485V74.6955C123.982 74.6873 123.984 74.6793 123.988 74.6719C123.991 74.6645 123.996 74.6578 124.002 74.6522C124.008 74.6467 124.015 74.6423 124.022 74.6394C124.03 74.6366 124.038 74.6352 124.046 74.6355C124.055 74.6352 124.063 74.6366 124.07 74.6395C124.078 74.6424 124.085 74.6467 124.09 74.6523C124.096 74.6579 124.101 74.6647 124.104 74.6721C124.107 74.6795 124.109 74.6874 124.109 74.6955V75.1485C124.109 75.1566 124.107 75.1647 124.103 75.1721C124.1 75.1795 124.095 75.1862 124.089 75.1918C124.083 75.1973 124.076 75.2017 124.069 75.2046C124.061 75.2074 124.053 75.2088 124.045 75.2085Z" fill="#242424"/>
<path d="M123.518 79.0805C123.504 79.0674 123.485 79.0602 123.466 79.0602C123.446 79.0602 123.428 79.0674 123.413 79.0805C123.197 79.2741 123.201 79.2489 123.31 79.4173C123.413 79.3689 123.542 79.3012 123.667 79.2237L123.518 79.0805Z" fill="#BE1E2D"/>
<path d="M118.772 79.1947C118.55 79.0011 118.6 79.0011 118.382 79.216C118.507 79.2896 118.636 79.3573 118.741 79.4096C118.787 79.3244 118.846 79.2586 118.772 79.1947Z" fill="#BE1E2D"/>
</g>
<defs>
<linearGradient id="paint0_linear_203_5467" x1="106.811" y1="76.1204" x2="113.112" y2="76.1204" gradientUnits="userSpaceOnUse">
<stop/>
<stop offset="1" stop-color="#000001"/>
</linearGradient>
<linearGradient id="paint1_linear_203_5467" x1="104.599" y1="54.7006" x2="109.702" y2="54.7006" gradientUnits="userSpaceOnUse">
<stop/>
<stop offset="1" stop-color="#000001"/>
</linearGradient>
<linearGradient id="paint2_linear_203_5467" x1="103.105" y1="66.5779" x2="111.195" y2="66.5779" gradientUnits="userSpaceOnUse">
<stop/>
<stop offset="1" stop-color="#000001"/>
</linearGradient>
<linearGradient id="paint3_linear_203_5467" x1="88.2457" y1="85.4654" x2="98.9328" y2="85.4654" gradientUnits="userSpaceOnUse">
<stop/>
<stop offset="1" stop-color="#000001"/>
</linearGradient>
<clipPath id="clip0_203_5467">
<rect width="165.607" height="115.925" fill="white" transform="translate(14.8525 38.0376)"/>
</clipPath>
</defs>
</svg>
