<svg width="105" height="105" viewBox="0 0 105 105" fill="none" xmlns="http://www.w3.org/2000/svg">
<g clip-path="url(#clip0_1_2106)">
<path d="M53.3605 48.4617C53.348 48.4501 53.3316 48.4436 53.3145 48.4436C53.2974 48.4436 53.2809 48.4501 53.2684 48.4617C53.0778 48.6298 53.0811 48.6107 53.1764 48.7575C53.2841 48.7076 53.3892 48.6522 53.4911 48.5915L53.3605 48.4617Z" fill="#BE1E2D"/>
<path d="M53.3018 20.6359C57.347 20.6359 61.2265 22.2332 64.0869 25.0763C66.9473 27.9195 68.5542 31.7757 68.5542 35.7966V44.7366H38.0493V35.7966C38.0493 31.7757 39.6563 27.9195 42.5167 25.0763C45.3771 22.2332 49.2566 20.6359 53.3018 20.6359Z" fill="#F4F2F4"/>
<path d="M53.3018 68.9938C49.2568 68.993 45.3778 67.3954 42.5176 64.5524C39.6574 61.7094 38.0502 57.8537 38.0493 53.8331V46.1458H42.6459V53.8331C42.7018 56.6049 43.8489 59.2444 45.8407 61.185C47.8326 63.1255 50.5105 64.2125 53.2996 64.2125C56.0887 64.2125 58.7667 63.1255 60.7586 61.185C62.7504 59.2444 63.8974 56.6049 63.9533 53.8331V46.1458H68.55V53.8331C68.5497 57.8531 66.9432 61.7085 64.0838 64.5515C61.2244 67.3945 57.3462 68.9924 53.3018 68.9938Z" fill="#FFB940"/>
<path fill-rule="evenodd" clip-rule="evenodd" d="M60.5912 38.1752H58.4434C58.892 38.8777 59.2025 39.7876 59.2689 41.1797C59.6404 41.2414 59.8321 41.5926 59.8321 41.9247V42.4781H60.1148V43.3562H60.6266V44.9622H61.0955V39.3215L61.9071 38.1731L60.5912 38.1752Z" fill="url(#paint0_linear_1_2106)"/>
<path fill-rule="evenodd" clip-rule="evenodd" d="M60.0345 29.7015C60.0341 29.543 59.9801 29.3893 59.8813 29.265C59.7825 29.1407 59.6445 29.0531 59.4895 29.0161V27.757C59.4891 27.6569 59.4522 27.5604 59.3856 27.4852C59.3191 27.4101 59.2274 27.3615 59.1276 27.3483V27.1482C59.1276 27.0362 59.0892 26.9275 59.0188 26.8401C58.9483 26.7526 58.85 26.6916 58.74 26.6672L58.7196 26.3213C58.7533 26.3121 58.7832 26.2925 58.8049 26.2653C58.8267 26.2382 58.8392 26.2048 58.8406 26.1702C58.8365 26.132 58.8201 26.0962 58.7938 26.068C58.7676 26.0398 58.733 26.0208 58.695 26.0137L58.6875 25.9073L58.6297 25.1112L58.5719 25.9073L58.5644 26.0137C58.5264 26.0208 58.4918 26.0398 58.4656 26.068C58.4393 26.0962 58.4229 26.132 58.4188 26.1702C58.4206 26.2049 58.4335 26.2382 58.4557 26.2652C58.4778 26.2922 58.508 26.3115 58.5419 26.3202L58.5216 26.6661C58.4116 26.6906 58.3132 26.7515 58.2428 26.839C58.1723 26.9264 58.1339 27.0351 58.134 27.1472V27.3473C58.0341 27.3604 57.9424 27.409 57.8759 27.4842C57.8094 27.5593 57.7725 27.6559 57.772 27.756V29.0161C57.6171 29.0531 57.4791 29.1407 57.3802 29.265C57.2814 29.3893 57.2274 29.543 57.2271 29.7015V34.4716H60.0345V29.7015ZM58.1179 31.9705H57.6682V30.7466C57.6682 30.6873 57.6919 30.6305 57.734 30.5886C57.7762 30.5466 57.8334 30.5231 57.893 30.5231C57.9527 30.5231 58.0099 30.5466 58.052 30.5886C58.0942 30.6305 58.1179 30.6873 58.1179 30.7466V31.9705ZM58.4284 28.4839C58.4264 28.4566 58.4301 28.4292 58.4392 28.4034C58.4483 28.3776 58.4627 28.3539 58.4814 28.3339C58.5002 28.3138 58.5229 28.2979 58.5481 28.2869C58.5733 28.276 58.6006 28.2704 58.6281 28.2704C58.6556 28.2704 58.6829 28.276 58.7081 28.2869C58.7333 28.2979 58.756 28.3138 58.7748 28.3339C58.7935 28.3539 58.8079 28.3776 58.817 28.4034C58.8261 28.4292 58.8298 28.4566 58.8278 28.4839V29.0161H58.4284V28.4839ZM58.4038 31.9705V30.7466C58.4038 30.6873 58.4275 30.6305 58.4696 30.5886C58.5118 30.5466 58.569 30.5231 58.6286 30.5231C58.6883 30.5231 58.7455 30.5466 58.7876 30.5886C58.8298 30.6305 58.8535 30.6873 58.8535 30.7466V31.9705H58.4038ZM59.5923 31.9705H59.1426V30.7466C59.1426 30.6873 59.1663 30.6305 59.2084 30.5886C59.2506 30.5466 59.3078 30.5231 59.3674 30.5231C59.4271 30.5231 59.4843 30.5466 59.5264 30.5886C59.5686 30.6305 59.5923 30.6873 59.5923 30.7466V31.9705Z" fill="url(#paint1_linear_1_2106)"/>
<path fill-rule="evenodd" clip-rule="evenodd" d="M56.9219 36.7172C57.4183 37.0237 57.8586 37.412 58.2239 37.8655H60.3375V35.5294L60.8535 34.7844H56.4058L56.9219 35.5294V36.7172Z" fill="url(#paint2_linear_1_2106)"/>
<path fill-rule="evenodd" clip-rule="evenodd" d="M61.952 38.1753L61.1404 39.3237V44.9665H60.9209V39.3237L61.7325 38.1753H61.952Z" fill="#242424"/>
<path fill-rule="evenodd" clip-rule="evenodd" d="M59.5321 29.0161V27.7581C59.532 27.6578 59.4952 27.561 59.4286 27.4856C59.3621 27.4103 59.2703 27.3615 59.1702 27.3483V27.1482C59.1702 27.0363 59.1318 26.9278 59.0613 26.8405C58.9909 26.7532 58.8926 26.6925 58.7826 26.6683L58.7623 26.3213C58.7962 26.3124 58.8264 26.293 58.8484 26.2657C58.8704 26.2385 58.883 26.205 58.8844 26.1702C58.8804 26.1321 58.8642 26.0963 58.8382 26.0681C58.8121 26.0399 58.7776 26.0209 58.7398 26.0137L58.7312 25.9073L58.6745 25.1112L58.6167 25.9073L58.6092 26.0137C58.5935 26.018 58.5784 26.0241 58.5642 26.0318C58.5935 26.0423 58.6192 26.0609 58.6381 26.0854C58.6571 26.1099 58.6686 26.1393 58.6713 26.1702C58.6701 26.2009 58.66 26.2307 58.6421 26.2558C58.6243 26.281 58.5994 26.3004 58.5706 26.3117L58.592 26.3202L58.5717 26.6672C58.6814 26.6916 58.7795 26.7525 58.8498 26.8397C58.92 26.927 58.9583 27.0354 58.9582 27.1472V27.3473C59.0583 27.3604 59.1501 27.4092 59.2166 27.4846C59.2832 27.5599 59.32 27.6567 59.3201 27.757V29.0161C59.4751 29.0531 59.6131 29.1407 59.712 29.265C59.8108 29.3893 59.8647 29.543 59.8651 29.7015V34.4716H60.0793V29.7015C60.0788 29.5427 60.0245 29.3888 59.9253 29.2645C59.826 29.1401 59.6875 29.0526 59.5321 29.0161Z" fill="#242424"/>
<path fill-rule="evenodd" clip-rule="evenodd" d="M60.8984 34.7855L60.3823 35.5295V37.8656H60.1628V35.5295L60.6789 34.7855H60.8984Z" fill="#242424"/>
<path fill-rule="evenodd" clip-rule="evenodd" d="M58.0996 43.4116L59.861 43.3647V42.7187L58.0996 42.7113V42.5452L59.5794 42.476V42.0386C59.5794 41.7023 59.4305 41.3766 59.0151 41.3766C58.9455 39.893 58.5975 38.9075 58.0996 38.1923V38.1763C56.9657 36.565 55.0663 36.333 53.8778 34.8196H52.7535C51.565 36.333 49.6645 36.565 48.5316 38.1763V38.1966C48.0337 38.9118 47.6858 39.8994 47.6151 41.3809C47.1997 41.3809 47.0508 41.7066 47.0508 42.0429V42.4835L48.5316 42.5527V42.7187L46.7692 42.7262V43.3722L48.5316 43.419V43.584H46.2563V44.9675H60.3738V43.584H58.0996V43.4116ZM53.8007 35.4645C54.0942 35.9594 54.4314 36.4274 54.8082 36.863C55.6755 37.8773 56.5567 38.9064 56.7259 41.3607L56.5439 41.3724C56.379 38.982 55.5192 37.9762 54.6722 36.9875C54.2614 36.5169 53.8988 36.0067 53.5897 35.4645H53.8007ZM53.2236 35.4645H53.4056V41.3734H53.2236V35.4645ZM49.9043 41.3607C50.0767 38.9096 50.9536 37.8773 51.8209 36.8662C52.1981 36.4309 52.5353 35.9629 52.8285 35.4677H53.0426C52.7328 36.0097 52.3699 36.5198 51.959 36.9907C51.1121 37.9794 50.2523 38.9852 50.0874 41.3756L49.9043 41.3607Z" fill="#0D9543"/>
<path fill-rule="evenodd" clip-rule="evenodd" d="M53.807 34.578C53.8069 34.4762 53.7721 34.3773 53.7083 34.2976C53.6446 34.2178 53.5556 34.1617 53.4559 34.1385L53.428 33.75C53.4735 33.7374 53.514 33.7111 53.5439 33.6747C53.5739 33.6383 53.5917 33.5936 53.595 33.5468C53.5908 33.4945 53.569 33.4452 53.5333 33.4067C53.4977 33.3681 53.45 33.3425 53.398 33.3339L53.3873 33.1945L53.3092 32.1132L53.231 33.1945L53.2203 33.3339C53.1683 33.3425 53.1207 33.3681 53.085 33.4067C53.0493 33.4452 53.0276 33.4945 53.0233 33.5468C53.0266 33.5936 53.0445 33.6383 53.0744 33.6747C53.1043 33.7111 53.1448 33.7374 53.1903 33.75L53.1625 34.1385C53.0627 34.1617 52.9737 34.2178 52.91 34.2976C52.8462 34.3773 52.8115 34.4762 52.8113 34.578H53.807Z" fill="#0D9543"/>
<path fill-rule="evenodd" clip-rule="evenodd" d="M53.322 43.9937L53.3209 44.3375L53.3198 45.373L53.3134 49.6067L53.3198 53.7468H44.1223V43.7319L53.2824 39.6833L53.3006 39.6897L53.3016 40.8828L53.3038 42.1323L53.3048 43.7404L53.3059 43.9873L53.322 43.9937Z" fill="url(#paint3_linear_1_2106)"/>
<path fill-rule="evenodd" clip-rule="evenodd" d="M62.4811 43.7319V53.7468H53.2846L53.29 49.6067L53.2846 45.3592L53.2835 44.3226L53.2825 43.9937L53.2975 43.9873L53.2985 43.7372L53.3007 42.1312L53.3017 40.8828L53.3039 39.6897L53.3221 39.6833L62.4811 43.7319Z" fill="#242424"/>
<path fill-rule="evenodd" clip-rule="evenodd" d="M44.1235 45.7753L53.2825 42.1238V43.7245L44.1235 47.3867V45.7753Z" fill="white"/>
<path fill-rule="evenodd" clip-rule="evenodd" d="M51.6904 44.9484V45.9808L53.2825 45.3422V44.3109L51.6904 44.9484ZM48.3358 46.2852V47.3228L50.1946 46.5778V45.5402L48.3358 46.2852ZM44.6953 47.7379V48.7788L46.8368 47.922V46.8822L44.6953 47.7379Z" fill="white"/>
<path fill-rule="evenodd" clip-rule="evenodd" d="M47.508 46.6384L47.189 47.2621L47.643 47.6218L47.961 46.9535L47.508 46.6384Z" fill="white"/>
<path fill-rule="evenodd" clip-rule="evenodd" d="M50.8892 45.323L50.5691 45.9467L51.0241 46.3064L51.3411 45.6391L50.8892 45.323Z" fill="white"/>
<path fill-rule="evenodd" clip-rule="evenodd" d="M62.48 45.7913L53.2825 42.1238V43.7309L62.48 47.409V45.7913Z" fill="white"/>
<path fill-rule="evenodd" clip-rule="evenodd" d="M53.3209 44.3375L53.2834 44.3226V45.3582L53.3188 45.372L54.8799 45.9968V44.9591L53.3209 44.3375ZM56.3832 45.5593V46.6045L58.2505 47.3495V46.3065L56.3832 45.5593ZM59.7538 46.9014V47.9465L61.9071 48.8075V47.7603L59.7538 46.9014Z" fill="white"/>
<path fill-rule="evenodd" clip-rule="evenodd" d="M59.0805 46.6576L59.4017 47.2834L58.9455 47.6442L58.6265 46.9737L59.0805 46.6576Z" fill="white"/>
<path fill-rule="evenodd" clip-rule="evenodd" d="M55.6852 45.3369L56.0064 45.9627L55.5503 46.3246L55.2312 45.6541L55.6852 45.3369Z" fill="white"/>
<path d="M66.4642 48.2222H66.0466V49.9527H66.4642V48.2222Z" fill="#242424"/>
<path d="M51.4203 66.7844C50.1671 66.6057 48.9466 66.2472 47.797 65.7201L47.9726 65.3433C49.0852 65.8531 50.2664 66.1994 51.4792 66.3714L51.4203 66.7844ZM55.1968 66.7844L55.1379 66.3736C56.3504 66.1983 57.5309 65.8487 58.6423 65.3359L58.8179 65.7137C57.6693 66.2423 56.4495 66.6022 55.1968 66.7822V66.7844ZM44.6298 63.6756C43.6779 62.8466 42.8507 61.8861 42.1735 60.8233L42.5258 60.6009C43.1814 61.6318 43.9826 62.5637 44.905 63.368L44.6298 63.6756ZM61.9841 63.6671L61.7089 63.3542C62.6304 62.5499 63.4306 61.618 64.0848 60.587L64.4382 60.8095C63.7617 61.8737 62.9353 62.836 61.9841 63.6671ZM40.6328 57.3953C40.3044 56.236 40.1383 55.0374 40.1392 53.8331V53.6756H40.5567V53.8331C40.5559 54.9992 40.7166 56.1599 41.0343 57.2824L40.6328 57.3953ZM65.9747 57.3814L65.5721 57.2686C65.8877 56.1504 66.0473 54.9945 66.0464 53.8331V53.6617H66.464V53.8331C66.4646 55.0325 66.3 56.2264 65.9747 57.3814Z" fill="#242424"/>
<path d="M40.5567 48.2222H40.1392V49.9527H40.5567V48.2222Z" fill="#242424"/>
<path fill-rule="evenodd" clip-rule="evenodd" d="M44.2327 55.2059C44.5714 57.3549 45.6713 59.3128 47.3342 60.7268C48.997 62.1408 51.1134 62.9178 53.3017 62.9177C55.49 62.9176 57.6062 62.1405 59.269 60.7266C60.9318 59.3126 62.0318 57.3548 62.3707 55.2059H44.2327Z" fill="#FFB940"/>
<path d="M11.6377 81.5364C11.8807 81.2459 11.8807 80.8595 11.8807 80.5413V77.9136C11.8807 77.6039 11.8807 77.391 12.0167 77.2175C12.1527 77.0441 12.3765 76.9568 12.7555 76.9568C13.1345 76.9568 13.3583 77.0441 13.4943 77.2175C13.6303 77.391 13.6303 77.6039 13.6303 77.9136V80.454C13.6303 81.1298 13.6303 81.8642 13.0757 82.5219C12.6677 83.0041 11.9974 83.3808 10.7629 83.3808C9.52834 83.3808 8.85379 83.003 8.4437 82.5219C7.89014 81.8642 7.89014 81.1298 7.89014 80.454V77.9136C7.89014 77.6039 7.89014 77.391 8.02612 77.2175C8.1621 77.0441 8.38588 76.9568 8.77563 76.9568C9.16537 76.9568 9.38808 77.0441 9.52513 77.2175C9.66219 77.391 9.66111 77.6039 9.66111 77.9136V80.5413C9.66111 80.8606 9.66111 81.2459 9.90417 81.5364C10.0691 81.7386 10.3421 81.8642 10.7693 81.8642C11.1965 81.8642 11.4674 81.7386 11.6377 81.5364Z" fill="#FFB940"/>
<path d="M19.9669 77.9519C20.2967 77.275 20.5591 76.9568 21.2518 76.9568C21.573 76.9568 21.8246 77.0238 22.0013 77.2271C22.1566 77.4112 22.1855 77.6039 22.2251 77.9998L22.6534 82.357C22.663 82.473 22.6727 82.6177 22.6727 82.6954C22.6727 83.1009 22.4103 83.3138 21.8161 83.3138C21.1844 83.3138 20.9317 83.0722 20.8931 82.6081L20.679 79.527L19.5783 82.1516C19.4316 82.4889 19.2474 82.7497 18.7324 82.7497C18.2174 82.7497 18.0418 82.4889 17.8962 82.1516L16.7976 79.5164L16.5749 82.6028C16.5353 83.0477 16.3126 83.3084 15.6712 83.3084C15.1262 83.3084 14.835 83.1243 14.835 82.6699C14.835 82.5826 14.8446 82.457 14.8639 82.274L15.3007 78.0009C15.3403 77.5858 15.3693 77.3623 15.5738 77.1803C15.729 77.0355 15.9624 76.9579 16.3233 76.9579C17.0417 76.9579 17.3051 77.2665 17.6349 77.953L18.7913 80.3582L19.9669 77.9519Z" fill="#FFB940"/>
<path d="M25.646 82.3569C25.646 82.6666 25.646 82.8784 25.5197 83.053C25.3933 83.2275 25.1802 83.3137 24.8108 83.3137C24.4414 83.3137 24.2273 83.2264 24.101 83.053C23.9746 82.8795 23.9746 82.6666 23.9746 82.3569V78.0391C23.9746 77.6911 23.9746 77.275 24.5967 77.0813C24.8783 76.994 25.297 76.9365 25.948 76.9365C26.4833 76.9365 27.0754 76.9748 27.6194 77.226C28.2907 77.5357 28.6901 78.1051 28.6901 78.9363C28.6901 79.709 28.34 80.3082 27.6986 80.6658L29.0391 82.4336C29.3507 82.8486 29.1558 83.3127 28.3207 83.3127C27.6782 83.3127 27.4363 83.0423 27.1343 82.5879L26.464 81.5832C26.2895 81.3129 26.1525 81.051 26.1525 81.051H25.6471L25.646 82.3569ZM25.646 79.7196C25.646 79.7196 25.7831 79.7292 25.919 79.7292C26.6375 79.7292 26.9202 79.4493 26.9202 79.0342C26.9202 78.551 26.5411 78.3957 26.0347 78.3957C25.9046 78.3958 25.7746 78.4058 25.646 78.4255V79.7196Z" fill="#FFB940"/>
<path d="M33.9891 82.0196H31.822L31.6474 82.5017C31.4429 83.0626 31.1999 83.3138 30.5874 83.3138C30.0339 83.3138 29.8293 83.1105 29.8293 82.8018C29.835 82.6572 29.8715 82.5153 29.9364 82.3857L31.9194 77.7103C32.1239 77.2175 32.3563 76.9568 32.9783 76.9568C33.6004 76.9568 33.8146 77.2271 34.0095 77.7103L35.9239 82.3932C35.9746 82.5162 36.0043 82.6468 36.0117 82.7795C36.0117 83.1264 35.7387 83.3116 35.1851 83.3116C34.6016 83.3116 34.3981 83.1084 34.1743 82.5092L33.9891 82.0196ZM32.3081 80.686H33.5137L32.9109 79.0651L32.3081 80.686Z" fill="#FFB940"/>
<path d="M42.6651 82.357C42.6651 82.6667 42.6651 82.8785 42.5291 83.053C42.3932 83.2276 42.1694 83.3138 41.7796 83.3138C41.3899 83.3138 41.1672 83.2265 41.0301 83.053C40.8931 82.8795 40.8941 82.6667 40.8941 82.357V80.7733H38.6413V82.357C38.6413 82.6667 38.6413 82.8785 38.5054 83.053C38.3694 83.2276 38.1456 83.3138 37.7558 83.3138C37.3661 83.3138 37.1434 83.2265 37.0063 83.053C36.8693 82.8795 36.8704 82.6667 36.8704 82.357V77.9136C36.8704 77.6039 36.8704 77.391 37.0063 77.2175C37.1423 77.0441 37.3661 76.9568 37.7558 76.9568C38.1456 76.9568 38.3683 77.0441 38.5054 77.2175C38.6424 77.391 38.6413 77.6039 38.6413 77.9136V79.2173H40.8963V77.9136C40.8963 77.6039 40.8963 77.391 41.0323 77.2175C41.1682 77.0441 41.392 76.9568 41.7818 76.9568C42.1715 76.9568 42.3942 77.0441 42.5313 77.2175C42.6683 77.391 42.6673 77.6039 42.6673 77.9136L42.6651 82.357Z" fill="#FFB940"/>
<path d="M49.0112 81.2171C48.8367 81.2171 48.69 81.2075 48.69 81.2075V82.357C48.69 82.6667 48.69 82.8785 48.554 83.053C48.418 83.2275 48.2039 83.3138 47.8249 83.3138C47.4458 83.3138 47.222 83.2265 47.0957 83.053C46.9694 82.8795 46.9597 82.6667 46.9597 82.357V78.0296C46.9597 77.6816 46.9597 77.3048 47.5133 77.1015C47.796 76.9951 48.2521 76.9376 48.8356 76.9376C49.4674 76.9376 50.2158 77.0047 50.8186 77.3719C51.3818 77.7199 51.7223 78.2605 51.7223 79.0438C51.7234 80.4923 50.5573 81.2171 49.0112 81.2171ZM48.69 79.874C48.7801 79.887 48.871 79.8934 48.962 79.8931C49.4973 79.8931 49.9535 79.6803 49.9535 79.13C49.9535 78.6277 49.5648 78.3957 49.0005 78.3957C48.8967 78.3961 48.793 78.4028 48.69 78.4159V79.874Z" fill="black"/>
<path d="M55.8585 82.0196H53.686L53.5104 82.5017C53.3069 83.0626 53.0639 83.3138 52.4514 83.3138C51.8968 83.3138 51.6934 83.1105 51.6934 82.8018C51.6985 82.6571 51.735 82.5151 51.8004 82.3857L53.7823 77.7103C53.9868 77.2175 54.2203 76.9568 54.8424 76.9568C55.4644 76.9568 55.6786 77.2271 55.8724 77.7103L57.7868 82.3932C57.838 82.516 57.8677 82.6467 57.8746 82.7795C57.8746 83.1264 57.6027 83.3116 57.048 83.3116C56.4656 83.3116 56.2611 83.1084 56.0373 82.5092L55.8585 82.0196ZM54.1774 80.686H55.3766L54.7738 79.0651L54.1774 80.686Z" fill="black"/>
<path d="M61.8985 79.7973C62.4039 80.1347 62.8321 80.6179 62.8321 81.4107C62.8321 82.6474 61.7721 83.3616 60.4765 83.3616C60.0206 83.364 59.5696 83.2685 59.1542 83.0817C58.8244 82.9274 58.5417 82.7241 58.5417 82.3367C58.5417 81.9695 58.7944 81.4852 59.242 81.4852C59.6499 81.4852 59.9615 81.8907 60.4862 81.8907C60.8363 81.8907 61.059 81.7173 61.059 81.4757C61.059 81.1766 60.7196 80.9925 60.3009 80.7711C59.5825 80.3944 58.6006 79.9399 58.6006 78.8096C58.6006 77.6389 59.621 76.8939 60.8749 76.8939C61.7496 76.8939 62.7219 77.2611 62.7219 77.8997C62.7219 78.2658 62.4006 78.7107 61.9831 78.7107C61.6233 78.7107 61.2732 78.3722 60.8363 78.3722C60.544 78.3722 60.3695 78.5276 60.3695 78.7107C60.3727 79.1108 61.1993 79.3237 61.8985 79.7973Z" fill="black"/>
<path d="M66.9641 79.7973C67.4695 80.1347 67.8978 80.6179 67.8978 81.4107C67.8978 82.6474 66.8378 83.3616 65.5422 83.3616C65.0863 83.364 64.6353 83.2685 64.2199 83.0817C63.8901 82.9274 63.6074 82.7241 63.6074 82.3367C63.6074 81.9695 63.8601 81.4852 64.3077 81.4852C64.7156 81.4852 65.0272 81.8907 65.5519 81.8907C65.902 81.8907 66.1258 81.7173 66.1258 81.4757C66.1258 81.1766 65.7853 80.9925 65.3666 80.7711C64.6482 80.3944 63.6663 79.9399 63.6663 78.8096C63.6663 77.6389 64.6867 76.8939 65.9405 76.8939C66.8153 76.8939 67.7875 77.2611 67.7875 77.8997C67.7875 78.2658 67.4663 78.7107 67.0487 78.7107C66.689 78.7107 66.3388 78.3722 65.902 78.3722C65.6097 78.3722 65.4351 78.5276 65.4351 78.7107C65.4384 79.1108 66.265 79.3237 66.9641 79.7973Z" fill="black"/>
<path d="M70.7502 79.278H71.6635C71.9741 79.278 72.1882 79.278 72.3638 79.3929C72.5394 79.5078 72.6261 79.693 72.6261 80.0219C72.6261 80.3508 72.5383 80.5242 72.3638 80.6392C72.1893 80.7541 71.9741 80.7552 71.6635 80.7552H70.7502V81.7897H72.2075C72.5191 81.7897 72.7332 81.7897 72.9077 81.9057C73.0823 82.0217 73.1701 82.2047 73.1701 82.5336C73.1701 82.8625 73.0823 83.036 72.9077 83.152C72.7332 83.268 72.5191 83.268 72.2075 83.268H69.8947C69.2919 83.268 69.0681 83.0455 69.0681 82.4463V77.8454C69.0681 77.2462 69.2919 77.0238 69.8947 77.0238H72.0362C72.3467 77.0238 72.5608 77.0238 72.7364 77.1398C72.912 77.2558 72.9987 77.4399 72.9987 77.7677C72.9987 78.0955 72.9109 78.2701 72.7364 78.3861C72.5619 78.5021 72.3467 78.5021 72.0362 78.5021H70.7513L70.7502 79.278Z" fill="black"/>
<path d="M76.046 82.357C76.046 82.6667 76.046 82.8785 75.91 83.053C75.774 83.2275 75.5695 83.3138 75.1905 83.3138C74.8114 83.3138 74.5973 83.2265 74.4709 83.053C74.3446 82.8795 74.335 82.6667 74.335 82.357V77.6326C74.335 77.2175 74.6369 76.9568 75.2879 76.9568C75.9582 76.9568 76.2109 77.2175 76.4539 77.5368L78.6114 80.4732V77.9136C78.6114 77.6039 78.6114 77.391 78.7474 77.2175C78.8834 77.0441 79.0879 76.9568 79.4669 76.9568C79.846 76.9568 80.0601 77.0441 80.1865 77.2175C80.3128 77.391 80.3224 77.6039 80.3224 77.9136V82.6475C80.3224 83.1105 80.0216 83.3425 79.4958 83.3425C78.9701 83.3425 78.6992 83.1201 78.4465 82.7923L76.046 79.6718V82.357Z" fill="black"/>
<path d="M87.1783 82.1249C87.1783 82.5793 87.0905 82.8209 86.5359 83.053C85.993 83.2602 85.416 83.3649 84.8345 83.3616C82.9886 83.3616 81.4917 82.2803 81.4917 80.1443C81.4917 77.8646 83.1824 76.8982 84.8838 76.8982C85.4673 76.8982 86.099 77.0142 86.5455 77.2462C86.8571 77.4112 87.0605 77.623 87.0605 77.9614C87.0605 78.319 86.8271 78.8597 86.3421 78.8597C86.1376 78.8597 85.9427 78.7735 85.7093 78.6766C85.431 78.5523 85.1299 78.4863 84.8249 78.4829C84.0186 78.4829 83.2798 78.9469 83.2798 80.1347C83.2798 81.2948 83.9897 81.8258 84.8345 81.8258C85.0293 81.8281 85.2232 81.7986 85.4084 81.7386V81.3001C85.4084 80.9904 85.4084 80.7786 85.5444 80.604C85.6804 80.4295 85.9041 80.3433 86.2939 80.3433C86.6836 80.3433 86.9063 80.4306 87.0434 80.604C87.1805 80.7775 87.1794 80.9904 87.1794 81.3001L87.1783 82.1249Z" fill="black"/>
<path d="M90.1421 79.278H91.0554C91.367 79.278 91.5801 79.278 91.7557 79.3929C91.9313 79.5078 92.018 79.693 92.018 80.0219C92.018 80.3508 91.9302 80.5242 91.7557 80.6392C91.5811 80.7541 91.367 80.7552 91.0554 80.7552H90.1421V81.7897H91.5993C91.9109 81.7897 92.1251 81.7897 92.2996 81.9057C92.4741 82.0217 92.5619 82.2047 92.5619 82.5336C92.5619 82.8625 92.4741 83.036 92.2996 83.152C92.1251 83.268 91.9109 83.268 91.5993 83.268H89.2866C88.6837 83.268 88.46 83.0455 88.46 82.4463V77.8454C88.46 77.2462 88.6837 77.0238 89.2866 77.0238H91.428C91.7396 77.0238 91.9527 77.0238 92.1283 77.1398C92.3039 77.2558 92.3906 77.4399 92.3906 77.7677C92.3906 78.0955 92.3028 78.2701 92.1283 78.3861C91.9537 78.5021 91.7396 78.5021 91.428 78.5021H90.1431L90.1421 79.278Z" fill="black"/>
<path d="M95.3993 82.3569C95.3993 82.6666 95.3993 82.8784 95.2729 83.053C95.1466 83.2275 94.9324 83.3137 94.563 83.3137C94.1936 83.3137 93.9795 83.2264 93.8532 83.053C93.7268 82.8795 93.7268 82.6666 93.7268 82.3569V78.0391C93.7268 77.6911 93.7268 77.275 94.3489 77.0813C94.6316 76.994 95.0492 76.9365 95.7002 76.9365C96.2355 76.9365 96.8276 76.9748 97.3716 77.226C98.0429 77.5357 98.4423 78.1051 98.4423 78.9363C98.4423 79.709 98.0922 80.3082 97.4508 80.6658L98.7945 82.4346C99.1051 82.8497 98.9113 83.3137 98.075 83.3137C97.4326 83.3137 97.1906 83.0434 96.8887 82.5889L96.2184 81.5843C96.0439 81.3139 95.9079 81.0521 95.9079 81.0521H95.4025L95.3993 82.3569ZM95.3993 79.7196C95.3993 79.7196 95.5353 79.7292 95.6712 79.7292C96.3908 79.7292 96.6724 79.4493 96.6724 79.0342C96.6724 78.551 96.2933 78.3957 95.788 78.3957C95.6578 78.3958 95.5279 78.4057 95.3993 78.4255V79.7196Z" fill="black"/>
<path d="M38.4905 37.3366C38.5076 37.4719 38.5392 37.605 38.5847 37.7336C38.5847 39.4748 38.574 40.3581 38.5654 40.7902C38.5654 40.8807 38.5654 40.9509 38.5654 41.0031C38.5654 41.1308 38.559 41.1702 38.559 41.1702C38.3984 41.6448 38.5333 42.5676 38.559 42.6506C38.5674 42.7363 38.5917 42.8196 38.6307 42.8964C38.7025 43.0582 38.8267 43.087 39.0344 43.2594C39.2421 43.4318 39.8 43.5222 39.8 43.5222H40.9039C40.9039 43.5222 41.4617 43.4318 41.6694 43.2594C41.8772 43.087 42.0024 43.0582 42.0742 42.8964C42.1127 42.8195 42.1366 42.7362 42.1448 42.6506C42.1705 42.5676 42.3055 41.6448 42.1448 41.1702C42.1448 41.1702 42.1448 41.1329 42.1384 41.0031C42.1384 40.9488 42.1384 40.8786 42.1331 40.7902C42.1256 40.3645 42.1159 39.4822 42.1159 37.7325C42.3397 37.1163 42.2487 35.6902 42.0388 35.4975C41.8851 35.3728 41.7128 35.2726 41.5281 35.2006C41.3036 35.1421 41.0736 35.1064 40.8418 35.0942C40.0013 35.0803 39.1661 35.0271 38.6661 35.4986C38.5429 35.6135 38.559 35.8115 38.4905 36.1233C38.4462 36.5266 38.4462 36.9334 38.4905 37.3366ZM41.9168 40.7221C41.8625 40.5954 41.8202 40.4639 41.7904 40.3294C41.6384 39.6717 41.6641 39.5525 41.6641 39.0522C41.6638 39.0429 41.666 39.0337 41.6706 39.0255C41.6752 39.0174 41.6819 39.0107 41.6901 39.006C41.6983 39.0014 41.7075 38.9991 41.7169 38.9994C41.7263 38.9997 41.7354 39.0025 41.7433 39.0075L41.8943 39.114C41.9014 39.119 41.9072 39.1257 41.9111 39.1335C41.9151 39.1413 41.917 39.15 41.9168 39.1587V40.7221ZM41.9168 37.3856V38.7287C41.9174 38.736 41.9163 38.7434 41.9136 38.7503C41.9109 38.7571 41.9066 38.7633 41.9011 38.7682C41.8956 38.7731 41.8891 38.7768 41.8819 38.7788C41.8748 38.7808 41.8673 38.7811 41.86 38.7798L41.6994 38.7383C41.6886 38.7352 41.6791 38.7286 41.6725 38.7195C41.6659 38.7105 41.6626 38.6994 41.663 38.6883C41.6545 37.7751 41.6341 37.2909 41.7701 37.3324C41.8376 37.3324 41.9146 37.3164 41.9146 37.3856H41.9168ZM41.6352 36.5012C41.6355 36.4011 41.6665 36.3034 41.7241 36.2213C41.8236 36.0797 41.8311 36.4735 41.8729 36.9854L41.633 37.2387C41.633 37.2387 41.6245 36.6363 41.633 36.5012H41.6352ZM39.2282 35.5231C39.3438 35.4496 39.6415 35.2772 39.8514 35.274C40.0055 35.274 40.7326 35.274 40.8482 35.274C41.0623 35.274 41.3557 35.4496 41.4714 35.5231C41.5452 35.5688 41.5142 35.6508 41.5013 35.8424C41.5 35.8559 41.496 35.8691 41.4894 35.8811C41.4828 35.893 41.4738 35.9035 41.4629 35.9119C41.4521 35.9202 41.4397 35.9263 41.4264 35.9298C41.4131 35.9332 41.3993 35.9339 41.3857 35.9318C40.8061 35.8599 40.2206 35.8464 39.6383 35.8913L39.3171 35.9318C39.3036 35.9339 39.2898 35.9332 39.2766 35.9297C39.2633 35.9263 39.251 35.9202 39.2402 35.9118C39.2295 35.9034 39.2206 35.8929 39.2141 35.881C39.2076 35.869 39.2037 35.8559 39.2025 35.8424L39.1864 35.6114C39.1842 35.5945 39.1867 35.5773 39.1937 35.5617C39.2007 35.5461 39.2119 35.5327 39.2261 35.5231H39.2282ZM39.2999 39.9931C39.6704 40.0931 40.4842 40.0995 41.0666 40.0484C41.1791 40.0401 41.2906 40.0216 41.3996 39.9931C41.4225 39.9871 41.4464 39.9859 41.4697 39.9894C41.4931 39.9929 41.5155 40.0012 41.5356 40.0136C41.5557 40.0261 41.5729 40.0425 41.5864 40.0618C41.5998 40.0812 41.6091 40.1031 41.6138 40.1261L41.8151 41.2968C40.8635 41.6268 39.8275 41.6268 38.8759 41.2968L39.0772 40.1261C39.0815 40.1021 39.0908 40.0793 39.1046 40.0592C39.1183 40.039 39.1361 40.022 39.1569 40.0091C39.1778 39.9963 39.201 39.9879 39.2253 39.9846C39.2496 39.9813 39.2743 39.9831 39.2978 39.9899L39.2999 39.9931ZM38.7828 40.7253V39.1544C38.7828 39.1458 38.7849 39.1372 38.7888 39.1295C38.7927 39.1217 38.7983 39.115 38.8053 39.1097L38.9562 39.0033C38.9641 38.9979 38.9734 38.9949 38.9829 38.9945C38.9925 38.994 39.002 38.9963 39.0103 39.0009C39.0187 39.0056 39.0255 39.0124 39.0302 39.0207C39.0348 39.0291 39.037 39.0385 39.0365 39.048C39.0365 39.0725 39.0365 39.6238 39.0365 39.6482C38.9669 40.0601 38.8963 40.4741 38.7806 40.7221L38.7828 40.7253ZM38.9755 36.2244C39.0826 36.3745 39.0762 36.4586 39.0654 37.2451L38.8267 36.9886C38.8652 36.4735 38.8749 36.0797 38.9734 36.2213L38.9755 36.2244ZM38.8299 37.3356H38.9295C39.0654 37.2941 39.0451 37.7783 39.0365 38.6915C39.0372 38.7027 39.0339 38.7138 39.0273 38.7229C39.0206 38.732 39.0111 38.7386 39.0001 38.7415L38.8395 38.783C38.8322 38.7843 38.8247 38.784 38.8176 38.782C38.8105 38.7799 38.8039 38.7763 38.7984 38.7714C38.793 38.7664 38.7887 38.7603 38.786 38.7535C38.7833 38.7466 38.7822 38.7392 38.7828 38.7319C38.7806 37.3771 38.7517 37.3324 38.8277 37.3324L38.8299 37.3356Z" fill="#FFB940"/>
<path d="M41.3546 43.4296C41.534 43.383 41.6968 43.2875 41.8246 43.1539C41.8291 43.1502 41.8327 43.1454 41.8351 43.1401C41.8375 43.1347 41.8387 43.1289 41.8385 43.1231C41.8385 43.0826 41.8385 42.9954 41.7753 43.0305C41.392 43.2519 41.2668 43.2849 41.2764 43.3413C41.286 43.3977 41.3032 43.4477 41.3546 43.4296Z" fill="#242424"/>
<path d="M39.4047 43.3998C39.4025 43.4059 39.3991 43.4115 39.3948 43.4163C39.3905 43.4211 39.3852 43.425 39.3793 43.4278C39.3734 43.4305 39.3671 43.4321 39.3606 43.4324C39.3541 43.4328 39.3476 43.4318 39.3415 43.4296C39.1618 43.3828 38.9987 43.2874 38.8704 43.1539C38.8622 43.1456 38.8572 43.1347 38.8564 43.1231C38.8564 43.0826 38.8564 42.9954 38.9196 43.0305C39.44 43.3306 39.4443 43.271 39.4047 43.3998Z" fill="#242424"/>
<path d="M41.876 40.8743L41.9006 40.9871C42.1886 41.0542 42.4038 40.9477 42.4081 40.8647C42.4124 40.7817 42.4563 40.6913 42.0248 40.82L41.876 40.8743Z" fill="#242424"/>
<path d="M42.0099 39.1896C42.0054 39.1895 42.001 39.1902 41.9967 39.1918C41.9925 39.1934 41.9887 39.1957 41.9854 39.1988C41.9821 39.2019 41.9795 39.2056 41.9776 39.2096C41.9758 39.2137 41.9747 39.2181 41.9746 39.2226V39.4738C41.9747 39.4781 41.9757 39.4824 41.9775 39.4863C41.9793 39.4903 41.9819 39.4938 41.9851 39.4968C41.9883 39.4997 41.992 39.5021 41.9961 39.5036C42.0002 39.5051 42.0045 39.5058 42.0089 39.5057C42.0133 39.506 42.0178 39.5054 42.022 39.5039C42.0262 39.5024 42.0301 39.5002 42.0334 39.4972C42.0367 39.4942 42.0393 39.4906 42.0412 39.4866C42.043 39.4825 42.0441 39.4782 42.0442 39.4738V39.2236C42.0442 39.2192 42.0433 39.2148 42.0416 39.2108C42.0398 39.2067 42.0373 39.203 42.0341 39.1999C42.0309 39.1969 42.0271 39.1944 42.023 39.1929C42.0188 39.1913 42.0144 39.1905 42.0099 39.1907V39.1896Z" fill="#242424"/>
<path d="M42.0099 37.5377C42.0054 37.5376 42.001 37.5383 41.9967 37.5399C41.9925 37.5415 41.9887 37.5439 41.9854 37.547C41.9821 37.55 41.9795 37.5537 41.9776 37.5578C41.9758 37.5619 41.9747 37.5663 41.9746 37.5707V37.8198C41.9746 37.8242 41.9755 37.8286 41.9772 37.8326C41.979 37.8367 41.9815 37.8404 41.9847 37.8435C41.9879 37.8466 41.9917 37.849 41.9958 37.8506C42 37.8522 42.0044 37.8529 42.0089 37.8528C42.0134 37.8529 42.0179 37.8522 42.0221 37.8506C42.0263 37.849 42.0301 37.8466 42.0334 37.8435C42.0367 37.8405 42.0393 37.8368 42.0412 37.8327C42.043 37.8286 42.0441 37.8242 42.0442 37.8198V37.5707C42.0442 37.5663 42.0433 37.5619 42.0416 37.5579C42.0398 37.5538 42.0373 37.5501 42.0341 37.547C42.0309 37.5439 42.0271 37.5415 42.023 37.5399C42.0188 37.5383 42.0144 37.5376 42.0099 37.5377Z" fill="#242424"/>
<path d="M38.819 40.8743L38.7954 40.9871C38.5063 41.0542 38.2922 40.9477 38.2879 40.8647C38.2836 40.7817 38.2397 40.6913 38.6712 40.82L38.819 40.8743Z" fill="#242424"/>
<path d="M41.3342 36.3384C41.2165 36.3384 41.2518 36.2107 41.2518 39.6249C41.2521 39.6353 41.2544 39.6456 41.2587 39.6551C41.263 39.6647 41.2692 39.6732 41.2769 39.6804C41.2846 39.6875 41.2936 39.693 41.3034 39.6967C41.3133 39.7003 41.3237 39.7019 41.3342 39.7015C41.3554 39.7021 41.3759 39.6944 41.3913 39.68C41.4067 39.6657 41.4158 39.6459 41.4167 39.6249C41.4167 36.1638 41.4509 36.3384 41.3342 36.3384Z" fill="#242424"/>
<path d="M39.3618 36.3384C39.4796 36.3384 39.4443 36.2107 39.4443 39.6249C39.4434 39.6459 39.4343 39.6657 39.4189 39.68C39.4034 39.6944 39.3829 39.7021 39.3618 39.7015C39.3513 39.7019 39.3409 39.7003 39.331 39.6967C39.3212 39.693 39.3121 39.6875 39.3045 39.6804C39.2968 39.6732 39.2906 39.6647 39.2863 39.6551C39.282 39.6456 39.2797 39.6353 39.2794 39.6249C39.2794 36.1638 39.244 36.3384 39.3618 36.3384Z" fill="#242424"/>
<path d="M38.6862 39.1896C38.6907 39.1894 38.6951 39.1902 38.6992 39.1918C38.7034 39.1934 38.7072 39.1958 38.7104 39.1989C38.7136 39.2019 38.7161 39.2056 38.7179 39.2097C38.7196 39.2138 38.7205 39.2182 38.7205 39.2226V39.4738C38.7203 39.4782 38.7193 39.4825 38.7174 39.4866C38.7156 39.4906 38.7129 39.4942 38.7096 39.4972C38.7063 39.5002 38.7025 39.5024 38.6983 39.5039C38.694 39.5054 38.6896 39.506 38.6851 39.5057C38.6808 39.5058 38.6764 39.5051 38.6724 39.5036C38.6683 39.5021 38.6645 39.4997 38.6614 39.4968C38.6582 39.4938 38.6556 39.4903 38.6538 39.4863C38.652 39.4824 38.651 39.4781 38.6509 39.4738V39.2236C38.651 39.2192 38.652 39.2148 38.6539 39.2107C38.6557 39.2066 38.6584 39.2029 38.6617 39.1999C38.6649 39.1968 38.6688 39.1944 38.673 39.1928C38.6772 39.1913 38.6817 39.1905 38.6862 39.1907V39.1896Z" fill="#242424"/>
<path d="M38.6862 37.5377C38.6907 37.5376 38.6951 37.5383 38.6992 37.5399C38.7034 37.5415 38.7072 37.5439 38.7104 37.547C38.7136 37.5501 38.7161 37.5538 38.7179 37.5579C38.7196 37.5619 38.7205 37.5663 38.7205 37.5707V37.8198C38.7203 37.8242 38.7193 37.8286 38.7175 37.8327C38.7156 37.8368 38.713 37.8405 38.7097 37.8435C38.7064 37.8466 38.7025 37.849 38.6983 37.8506C38.6941 37.8522 38.6896 37.8529 38.6851 37.8528C38.6807 37.8529 38.6763 37.8522 38.6721 37.8506C38.668 37.849 38.6642 37.8466 38.661 37.8435C38.6578 37.8404 38.6552 37.8367 38.6535 37.8326C38.6518 37.8286 38.6509 37.8242 38.6509 37.8198V37.5707C38.651 37.5663 38.652 37.5619 38.6539 37.5578C38.6557 37.5537 38.6584 37.55 38.6617 37.547C38.6649 37.5439 38.6688 37.5415 38.673 37.5399C38.6772 37.5383 38.6817 37.5376 38.6862 37.5377Z" fill="#242424"/>
<path d="M38.9754 35.4135C38.9834 35.4204 38.9937 35.4243 39.0043 35.4243C39.015 35.4243 39.0252 35.4204 39.0332 35.4135C39.1521 35.307 39.1499 35.3198 39.09 35.2283C39.0228 35.2603 38.9574 35.2958 38.894 35.3347L38.9754 35.4135Z" fill="#BE1E2D"/>
<path d="M41.5848 35.3454C41.7068 35.4518 41.679 35.4518 41.7989 35.3326C41.7355 35.2937 41.6701 35.2582 41.603 35.2262C41.5773 35.2741 41.5441 35.3092 41.5848 35.3454Z" fill="#BE1E2D"/>
<path d="M68.1141 41.2702C68.0964 41.1349 68.0645 41.0019 68.0188 40.8732C68.0188 39.1321 68.0295 38.2487 68.0381 37.8166C68.0381 37.7262 68.0381 37.6548 68.0381 37.6038C68.0381 37.476 68.0445 37.4356 68.0445 37.4356C68.2051 36.9609 68.0702 36.0393 68.0445 35.9562C68.0361 35.8706 68.0118 35.7872 67.9728 35.7104C67.9021 35.5476 67.7768 35.5199 67.5691 35.3475C67.3614 35.1751 66.8035 35.0846 66.8035 35.0846H65.7092C65.7092 35.0846 65.1514 35.174 64.9437 35.3475C64.7359 35.521 64.6107 35.5476 64.5389 35.7104C64.5004 35.7874 64.4765 35.8707 64.4683 35.9562C64.4426 36.0393 64.3077 36.9609 64.4683 37.4356C64.4683 37.4356 64.4683 37.4739 64.4747 37.6038C64.4747 37.658 64.4747 37.7283 64.48 37.8166C64.4875 38.2423 64.4982 39.1246 64.4982 40.8743C64.2745 41.4905 64.3644 42.9156 64.5753 43.1093C64.7285 43.2339 64.9005 43.3338 65.085 43.4052C65.3094 43.4642 65.5395 43.4999 65.7713 43.5116C66.6119 43.5254 67.447 43.5787 67.9471 43.1082C68.0702 42.9933 68.0541 42.7943 68.1226 42.4824C68.1643 42.0793 68.1614 41.6728 68.1141 41.2702ZM64.6878 37.8847C64.7421 38.0114 64.7844 38.1429 64.8141 38.2775C64.9662 38.9352 64.9405 39.0544 64.9405 39.5546C64.9408 39.5639 64.9385 39.5732 64.9339 39.5813C64.9294 39.5894 64.9226 39.5962 64.9145 39.6008C64.9063 39.6054 64.897 39.6077 64.8876 39.6074C64.8782 39.6072 64.8691 39.6044 64.8612 39.5993L64.7103 39.4929C64.703 39.4879 64.6972 39.4812 64.6933 39.4734C64.6893 39.4656 64.6875 39.4569 64.6878 39.4482V37.8847ZM64.6878 41.2213V39.8781C64.6872 39.8708 64.6882 39.8634 64.691 39.8566C64.6937 39.8497 64.698 39.8436 64.7034 39.8387C64.7089 39.8337 64.7155 39.8301 64.7226 39.8281C64.7297 39.8261 64.7372 39.8257 64.7445 39.8271L64.9051 39.8686C64.9158 39.8716 64.9251 39.878 64.9317 39.8869C64.9383 39.8957 64.9417 39.9065 64.9415 39.9175C64.9501 40.8317 64.9704 41.316 64.8345 41.2734C64.7659 41.2734 64.6888 41.2894 64.6888 41.2213H64.6878ZM64.9694 42.1057C64.9699 42.2059 64.9388 42.3038 64.8805 42.3856C64.7809 42.5271 64.7734 42.1334 64.7317 41.6204L64.9694 41.3649C64.9694 41.3649 64.979 41.9695 64.9704 42.1057H64.9694ZM67.3764 43.0827C67.2607 43.1561 66.9631 43.3285 66.7532 43.3328C66.599 43.3328 65.872 43.3328 65.7564 43.3328C65.5422 43.3328 65.2488 43.1561 65.1332 43.0827C65.0593 43.0369 65.0904 42.956 65.1032 42.7634C65.1046 42.7499 65.1088 42.7369 65.1155 42.725C65.1221 42.7132 65.1312 42.7029 65.142 42.6946C65.1528 42.6863 65.1652 42.6803 65.1784 42.677C65.1916 42.6736 65.2054 42.673 65.2188 42.6751C65.7989 42.7457 66.3846 42.7593 66.9673 42.7155L67.2886 42.6751C67.302 42.673 67.3157 42.6736 67.3288 42.677C67.342 42.6804 67.3543 42.6864 67.365 42.6947C67.3758 42.7029 67.3847 42.7133 67.3912 42.7251C67.3978 42.7369 67.4018 42.75 67.4031 42.7634L67.4192 42.9954C67.4212 43.0124 67.4184 43.0296 67.411 43.0451C67.4036 43.0605 67.392 43.0736 67.3774 43.0827H67.3764ZM67.3046 38.6127C66.9341 38.5137 66.1204 38.5063 65.5379 38.5574C65.4255 38.5662 65.3141 38.5847 65.2049 38.6127C65.1821 38.6185 65.1584 38.6197 65.1351 38.6162C65.1118 38.6126 65.0895 38.6044 65.0695 38.5921C65.0495 38.5798 65.0322 38.5636 65.0187 38.5444C65.0052 38.5253 64.9957 38.5036 64.9908 38.4807L64.7895 37.31C65.7413 36.9811 66.7768 36.9811 67.7286 37.31L67.5273 38.4807C67.5229 38.5047 67.5135 38.5275 67.4996 38.5477C67.4858 38.5678 67.4678 38.5848 67.4469 38.5975C67.426 38.6103 67.4026 38.6185 67.3783 38.6217C67.3539 38.6248 67.3292 38.6229 67.3057 38.6159L67.3046 38.6127ZM67.8218 37.8815V39.4482C67.8219 39.4569 67.8199 39.4655 67.816 39.4732C67.8121 39.481 67.8064 39.4877 67.7993 39.4929L67.6483 39.5993C67.6404 39.6047 67.6312 39.6077 67.6216 39.6081C67.6121 39.6086 67.6026 39.6063 67.5942 39.6017C67.5859 39.597 67.579 39.5902 67.5744 39.5818C67.5698 39.5735 67.5675 39.5641 67.568 39.5546C67.568 39.5301 67.568 38.9788 67.568 38.9543C67.6365 38.5467 67.7072 38.1316 67.8228 37.8847L67.8218 37.8815ZM67.629 42.3824C67.522 42.2313 67.5284 42.1483 67.5402 41.3617L67.7779 41.6172C67.7436 42.1344 67.7286 42.5271 67.6301 42.3856L67.629 42.3824ZM67.7747 41.2702H67.6751C67.5391 41.3128 67.5594 40.8285 67.568 39.9143C67.5678 39.9033 67.5713 39.8926 67.5779 39.8837C67.5844 39.8749 67.5938 39.8684 67.6044 39.8654L67.765 39.8239C67.7723 39.8225 67.7798 39.8229 67.7869 39.8249C67.7941 39.8269 67.8006 39.8305 67.8061 39.8355C67.8116 39.8404 67.8159 39.8465 67.8186 39.8534C67.8213 39.8602 67.8224 39.8676 67.8218 39.8749C67.8228 41.2298 67.8507 41.2734 67.7757 41.2734L67.7747 41.2702Z" fill="#FFB940"/>
<path d="M65.2489 35.1761C65.0695 35.2235 64.9068 35.3193 64.7788 35.4529C64.7745 35.4568 64.7711 35.4616 64.7687 35.4669C64.7663 35.4722 64.765 35.4779 64.7649 35.4837C64.7649 35.5242 64.7649 35.6114 64.8281 35.5763C65.2114 35.3549 65.3367 35.3209 65.327 35.2655C65.3174 35.2102 65.3013 35.158 65.2489 35.1761Z" fill="#242424"/>
<path d="M67.1986 35.207C67.203 35.1946 67.2121 35.1845 67.2239 35.1787C67.2357 35.1729 67.2493 35.172 67.2618 35.1761C67.4414 35.2237 67.6043 35.3194 67.7329 35.4528C67.7372 35.4568 67.7406 35.4615 67.743 35.4668C67.7454 35.4721 67.7467 35.4779 67.7468 35.4837C67.7468 35.5241 67.7468 35.6114 67.6837 35.5763C67.1633 35.2751 67.159 35.3357 67.1986 35.207Z" fill="#242424"/>
<path d="M64.7273 37.7325L64.7038 37.6197C64.4147 37.5526 64.1995 37.6591 64.1963 37.741C64.1931 37.823 64.147 37.9145 64.5785 37.7868L64.7273 37.7325Z" fill="#242424"/>
<path d="M64.5936 39.4162C64.5981 39.4164 64.6026 39.4156 64.6068 39.4141C64.611 39.4125 64.6149 39.4101 64.6181 39.407C64.6214 39.404 64.6241 39.4003 64.6259 39.3962C64.6278 39.3921 64.6288 39.3877 64.6289 39.3832V39.1342C64.6289 39.1298 64.628 39.1254 64.6263 39.1213C64.6246 39.1173 64.622 39.1136 64.6188 39.1105C64.6156 39.1074 64.6118 39.105 64.6077 39.1034C64.6035 39.1018 64.5991 39.1011 64.5947 39.1012C64.5902 39.1011 64.5857 39.1018 64.5815 39.1034C64.5772 39.105 64.5734 39.1074 64.5701 39.1104C64.5668 39.1135 64.5642 39.1172 64.5623 39.1213C64.5605 39.1253 64.5595 39.1297 64.5593 39.1342V39.3832C64.5593 39.3877 64.5602 39.392 64.562 39.3961C64.5637 39.4002 64.5662 39.4039 64.5694 39.407C64.5726 39.41 64.5764 39.4124 64.5806 39.414C64.5847 39.4156 64.5891 39.4164 64.5936 39.4162Z" fill="#242424"/>
<path d="M64.5936 41.0702C64.5981 41.0703 64.6026 41.0696 64.6068 41.068C64.611 41.0664 64.6149 41.064 64.6181 41.061C64.6214 41.0579 64.6241 41.0542 64.6259 41.0501C64.6278 41.0461 64.6288 41.0417 64.6289 41.0372V40.7881C64.6289 40.7837 64.628 40.7793 64.6263 40.7753C64.6246 40.7712 64.622 40.7675 64.6188 40.7644C64.6156 40.7613 64.6118 40.7589 64.6077 40.7573C64.6035 40.7558 64.5991 40.755 64.5947 40.7551C64.5902 40.755 64.5857 40.7557 64.5815 40.7573C64.5772 40.7589 64.5734 40.7613 64.5701 40.7644C64.5668 40.7674 64.5642 40.7711 64.5623 40.7752C64.5605 40.7793 64.5595 40.7837 64.5593 40.7881V41.0372C64.5593 41.0416 64.5602 41.046 64.562 41.0501C64.5637 41.0541 64.5662 41.0578 64.5694 41.0609C64.5726 41.064 64.5764 41.0664 64.5806 41.068C64.5847 41.0696 64.5891 41.0703 64.5936 41.0702Z" fill="#242424"/>
<path d="M67.7842 37.7325L67.8077 37.6197C68.0968 37.5526 68.311 37.6591 68.3153 37.741C68.3195 37.823 68.3645 37.9145 67.933 37.7868L67.7842 37.7325Z" fill="#242424"/>
<path d="M65.2693 42.2685C65.387 42.2685 65.3517 42.3952 65.3517 38.982C65.3514 38.9715 65.3491 38.9612 65.3448 38.9516C65.3405 38.9421 65.3343 38.9334 65.3267 38.9262C65.319 38.919 65.31 38.9133 65.3002 38.9096C65.2903 38.9058 65.2798 38.904 65.2693 38.9043C65.248 38.904 65.2275 38.912 65.2121 38.9265C65.1967 38.941 65.1877 38.9609 65.1868 38.982C65.1868 42.442 65.1526 42.2685 65.2693 42.2685Z" fill="#242424"/>
<path d="M67.2414 42.2685C67.1247 42.2685 67.159 42.3952 67.159 38.982C67.1598 38.9609 67.1689 38.941 67.1843 38.9265C67.1997 38.912 67.2202 38.904 67.2414 38.9043C67.252 38.904 67.2625 38.9058 67.2723 38.9096C67.2822 38.9133 67.2912 38.919 67.2989 38.9262C67.3065 38.9334 67.3127 38.9421 67.317 38.9516C67.3212 38.9612 67.3236 38.9715 67.3239 38.982C67.3239 42.442 67.3592 42.2685 67.2414 42.2685Z" fill="#242424"/>
<path d="M67.9171 39.4162C67.9126 39.4164 67.9082 39.4156 67.904 39.414C67.8999 39.4124 67.8961 39.41 67.8929 39.407C67.8897 39.4039 67.8872 39.4002 67.8854 39.3961C67.8837 39.392 67.8828 39.3877 67.8828 39.3832V39.1342C67.883 39.1297 67.884 39.1253 67.8858 39.1213C67.8877 39.1172 67.8903 39.1135 67.8936 39.1104C67.8969 39.1074 67.9007 39.105 67.905 39.1034C67.9092 39.1018 67.9136 39.1011 67.9181 39.1012C67.9226 39.1011 67.927 39.1018 67.9312 39.1034C67.9353 39.105 67.9391 39.1074 67.9423 39.1105C67.9455 39.1136 67.9481 39.1173 67.9498 39.1213C67.9515 39.1254 67.9524 39.1298 67.9524 39.1342V39.3832C67.9523 39.3877 67.9513 39.3921 67.9494 39.3962C67.9476 39.4003 67.9449 39.404 67.9416 39.407C67.9383 39.4101 67.9345 39.4125 67.9303 39.4141C67.9261 39.4156 67.9216 39.4164 67.9171 39.4162Z" fill="#242424"/>
<path d="M67.9171 41.0702C67.9126 41.0703 67.9082 41.0696 67.904 41.068C67.8999 41.0664 67.8961 41.064 67.8929 41.0609C67.8897 41.0578 67.8872 41.0541 67.8854 41.0501C67.8837 41.046 67.8828 41.0416 67.8828 41.0372V40.7881C67.883 40.7837 67.884 40.7793 67.8858 40.7752C67.8877 40.7711 67.8903 40.7674 67.8936 40.7644C67.8969 40.7613 67.9007 40.7589 67.905 40.7573C67.9092 40.7557 67.9136 40.755 67.9181 40.7551C67.9226 40.755 67.927 40.7558 67.9312 40.7573C67.9353 40.7589 67.9391 40.7613 67.9423 40.7644C67.9455 40.7675 67.9481 40.7712 67.9498 40.7753C67.9515 40.7793 67.9524 40.7837 67.9524 40.7881V41.0372C67.9523 41.0417 67.9513 41.0461 67.9494 41.0501C67.9476 41.0542 67.9449 41.0579 67.9416 41.061C67.9383 41.064 67.9345 41.0664 67.9303 41.068C67.9261 41.0696 67.9216 41.0703 67.9171 41.0702Z" fill="#242424"/>
<path d="M67.628 43.1987C67.6201 43.1915 67.6098 43.1875 67.5991 43.1875C67.5884 43.1875 67.5781 43.1915 67.5702 43.1987C67.4513 43.3051 67.4535 43.2913 67.5134 43.3838C67.5702 43.3572 67.6408 43.32 67.7094 43.2774L67.628 43.1987Z" fill="#BE1E2D"/>
<path d="M65.0186 43.2615C64.8965 43.1551 64.9244 43.1551 64.8044 43.2732C64.873 43.3137 64.9436 43.3509 65.0015 43.3797C65.0272 43.3328 65.0593 43.2966 65.0186 43.2615Z" fill="#BE1E2D"/>
</g>
<defs>
<linearGradient id="paint0_linear_1_2106" x1="58.4434" y1="41.5714" x2="61.9071" y2="41.5714" gradientUnits="userSpaceOnUse">
<stop/>
<stop offset="1" stop-color="#000001"/>
</linearGradient>
<linearGradient id="paint1_linear_1_2106" x1="57.2271" y1="29.7962" x2="60.0323" y2="29.7962" gradientUnits="userSpaceOnUse">
<stop/>
<stop offset="1" stop-color="#000001"/>
</linearGradient>
<linearGradient id="paint2_linear_1_2106" x1="56.4058" y1="36.3255" x2="60.8535" y2="36.3255" gradientUnits="userSpaceOnUse">
<stop/>
<stop offset="1" stop-color="#000001"/>
</linearGradient>
<linearGradient id="paint3_linear_1_2106" x1="48.2371" y1="46.7087" x2="54.1122" y2="46.7087" gradientUnits="userSpaceOnUse">
<stop/>
<stop offset="1" stop-color="#000001"/>
</linearGradient>
<clipPath id="clip0_1_2106">
<rect width="91.0405" height="63.7283" fill="white" transform="translate(7.89014 20.6359)"/>
</clipPath>
</defs>
</svg>
