<svg width="24" height="25" viewBox="0 0 24 25" fill="none" xmlns="http://www.w3.org/2000/svg">
<path d="M18.5 9.5C18.8376 9.5 19.1641 9.45219 19.473 9.36298C19.4909 9.57425 19.5 9.78801 19.5 10.0039V14.0024L20.9183 17.1625C20.9732 17.2848 21.0016 17.4174 21.0016 17.5515C21.0016 18.0762 20.5763 18.5015 20.0516 18.5015H3.95219C3.8184 18.5015 3.68613 18.4733 3.56402 18.4186C3.08515 18.2042 2.87073 17.6422 3.08511 17.1633L4.50001 14.0028L4.50011 9.99099L4.50453 9.74107C4.6436 5.71035 7.95588 2.50391 12 2.50391C13.4433 2.50391 14.7915 2.91162 15.9355 3.61815C15.355 4.24286 15 5.07997 15 6C15 7.933 16.567 9.5 18.5 9.5ZM14.9583 19.503C14.7196 20.9211 13.486 22.0015 12 22.0015C10.514 22.0015 9.28037 20.9211 9.04173 19.503H14.9583ZM18.5 8.5C19.8807 8.5 21 7.38071 21 6C21 4.61929 19.8807 3.5 18.5 3.5C17.1193 3.5 16 4.61929 16 6C16 7.38071 17.1193 8.5 18.5 8.5Z" fill="#565656"/>
</svg>
