<svg width="18" height="20" viewBox="0 0 18 20" fill="none" xmlns="http://www.w3.org/2000/svg">
<path d="M0.5 10C0.5 9.33696 0.763392 8.70107 1.23223 8.23223C1.70107 7.76339 2.33696 7.5 3 7.5H15C15.663 7.5 16.2989 7.76339 16.7678 8.23223C17.2366 8.70107 17.5 9.33696 17.5 10V17C17.5 17.663 17.2366 18.2989 16.7678 18.7678C16.2989 19.2366 15.663 19.5 15 19.5H3C2.33696 19.5 1.70107 19.2366 1.23223 18.7678C0.763392 18.2989 0.5 17.663 0.5 17V10ZM10.5 12C10.5 11.6022 10.342 11.2206 10.0607 10.9393C9.77936 10.658 9.39783 10.5 9 10.5C8.60217 10.5 8.22064 10.658 7.93934 10.9393C7.65804 11.2206 7.5 11.6022 7.5 12V15C7.5 15.3978 7.65804 15.7794 7.93934 16.0607C8.22064 16.342 8.60218 16.5 9 16.5C9.39782 16.5 9.77936 16.342 10.0607 16.0607C10.342 15.7794 10.5 15.3978 10.5 15V12Z" fill="#565656" stroke="#565656"/>
<path d="M5 8V5C5 3.93913 5.42143 2.92172 6.17157 2.17157C6.92172 1.42143 7.93913 1 9 1C10.0609 1 11.0783 1.42143 11.8284 2.17157C12.5786 2.92172 13 3.93913 13 5V8" stroke="#565656" stroke-width="2" stroke-linecap="round" stroke-linejoin="round"/>
</svg>
