<svg width="22" height="22" viewBox="0 0 22 22" fill="none" xmlns="http://www.w3.org/2000/svg">
<path d="M14.18 15.0639L20.219 20.8527C20.2887 20.9195 20.3715 20.9725 20.4626 21.0087C20.5537 21.0448 20.6514 21.0635 20.75 21.0635C20.8486 21.0635 20.9463 21.0448 21.0374 21.0087C21.1285 20.9725 21.2113 20.9195 21.281 20.8527C21.3507 20.7859 21.406 20.7065 21.4438 20.6192C21.4815 20.5319 21.5009 20.4383 21.5009 20.3438C21.5009 20.2493 21.4815 20.1557 21.4438 20.0684C21.406 19.9811 21.3507 19.9018 21.281 19.8349L1.781 1.14743C1.71127 1.0806 1.62848 1.02759 1.53737 0.991426C1.44627 0.95526 1.34862 0.936646 1.25 0.936646C1.15138 0.936646 1.05373 0.95526 0.962624 0.991426C0.871515 1.02759 0.788731 1.0806 0.719 1.14743C0.649268 1.21425 0.593953 1.29359 0.556214 1.3809C0.518476 1.46822 0.499052 1.5618 0.499052 1.6563C0.499052 1.75081 0.518476 1.84439 0.556214 1.9317C0.593953 2.01902 0.649268 2.09835 0.719 2.16518L5.564 6.8083C4.90457 7.25597 4.31122 7.78689 3.8 8.38668C3.0761 9.23791 2.50943 10.2015 2.1245 11.2358C2.093 11.3235 2.054 11.4442 2.054 11.4442L2.027 11.5334C2.027 11.5334 1.913 12.2478 2.5595 12.4117C2.75164 12.4603 2.95609 12.4339 3.12793 12.3383C3.29977 12.2426 3.42496 12.0854 3.476 11.9014L3.4775 11.8971L3.4895 11.8611L3.542 11.7044C3.86894 10.8312 4.34825 10.0175 4.9595 9.29805C5.44002 8.73205 6.00869 8.24041 6.6455 7.84043L9.0125 10.1088C8.53484 10.3957 8.13083 10.7821 7.83051 11.2393C7.53019 11.6965 7.34128 12.2127 7.27785 12.7495C7.21442 13.2863 7.27809 13.8299 7.46412 14.3399C7.65016 14.8498 7.95377 15.313 8.35238 15.695C8.75099 16.077 9.23435 16.368 9.76649 16.5463C10.2986 16.7246 10.8659 16.7856 11.426 16.7248C11.9861 16.664 12.5248 16.483 13.0018 16.1952C13.4789 15.9074 13.8821 15.5202 14.1815 15.0624L14.18 15.0639ZM8.48 5.53612L9.761 6.76374C10.1718 6.71259 10.5857 6.68714 11 6.68755C14.066 6.68755 15.929 7.99855 17.042 9.29949C17.6534 10.0188 18.1327 10.8326 18.4595 11.7059C18.485 11.7749 18.5015 11.8281 18.512 11.8626L18.524 11.8985V11.9028L18.5255 11.9042C18.581 12.0836 18.7073 12.2352 18.8776 12.3268C19.0479 12.4183 19.2487 12.4426 19.4374 12.3945C19.6261 12.3464 19.7877 12.2297 19.888 12.0691C19.9883 11.9086 20.0194 11.7169 19.9745 11.5348V11.5305L19.973 11.5247L19.967 11.5061C19.941 11.4153 19.911 11.3256 19.877 11.2372C19.4921 10.2029 18.9254 9.23934 18.2015 8.38812C16.8575 6.81405 14.594 5.25005 11.003 5.25005C10.076 5.25005 9.236 5.35355 8.48 5.53612Z" fill="#565656"/>
</svg>
