<svg width="12" height="14" viewBox="0 0 12 14" fill="none" xmlns="http://www.w3.org/2000/svg">
<path d="M6.00014 0.285767C7.47777 0.285767 8.89489 0.872755 9.93973 1.9176C10.9846 2.96245 11.5716 4.37956 11.5716 5.8572C11.5716 8.21148 9.91728 10.7772 6.65157 13.5818C6.46998 13.7378 6.23846 13.8234 5.99907 13.8232C5.75968 13.823 5.52831 13.7369 5.347 13.5806L5.131 13.3932C2.00985 10.6618 0.428711 8.15891 0.428711 5.8572C0.428711 4.37956 1.0157 2.96245 2.06054 1.9176C3.10539 0.872755 4.5225 0.285767 6.00014 0.285767ZM6.00014 3.71434C5.43182 3.71434 4.88677 3.9401 4.48491 4.34197C4.08305 4.74383 3.85728 5.28887 3.85728 5.8572C3.85728 6.42552 4.08305 6.97056 4.48491 7.37242C4.88677 7.77429 5.43182 8.00005 6.00014 8.00005C6.56846 8.00005 7.1135 7.77429 7.51537 7.37242C7.91723 6.97056 8.143 6.42552 8.143 5.8572C8.143 5.28887 7.91723 4.74383 7.51537 4.34197C7.1135 3.9401 6.56846 3.71434 6.00014 3.71434Z" fill="#929292"/>
</svg>
