<svg width="24" height="24" viewBox="0 0 24 24" fill="none" xmlns="http://www.w3.org/2000/svg">
<g clip-path="url(#clip0_415_5714)">
<path d="M1.56518 9.11707C2.61532 9.48019 3.66868 9.49465 4.72364 9.47483C4.94546 9.47054 5.07029 9.54017 5.19942 9.72333C5.88344 10.6927 6.57889 11.6539 7.28577 12.6068C7.55366 12.9726 7.80816 12.97 8.08034 12.6101C8.58666 11.9411 9.08172 11.2642 9.58054 10.5883C9.65662 10.4849 9.71449 10.3992 9.87737 10.4389C10.838 10.6734 11.8062 10.6033 12.7803 10.5272C13.2946 10.4822 13.8117 10.4754 14.3271 10.5069C14.5682 10.524 14.8248 10.6558 15.0268 10.802C15.3922 11.066 15.4356 11.292 15.2684 11.7076C15.127 12.0584 15.0616 12.4071 15.2149 12.7713C15.4908 13.4289 16.228 13.5746 16.7065 13.0503C16.909 12.8275 17.0558 12.5549 17.246 12.3198C17.3635 12.1649 17.5062 12.031 17.6682 11.9235C17.7497 11.8731 17.9217 11.8961 18.009 11.9529C18.0663 11.9904 18.0626 12.1484 18.0567 12.2512C18.0444 12.586 17.9495 12.9341 18.0133 13.2522C18.1788 14.0882 19.1224 14.3641 19.7305 13.7642C19.9355 13.554 20.0991 13.3071 20.2127 13.0364C20.6043 12.1232 21.2409 11.4404 22.0772 10.9246C22.3505 10.7565 22.6178 10.5765 22.8771 10.389C23.2488 10.1217 23.5442 9.76209 23.7344 9.34576C23.788 9.23543 23.8501 9.13153 23.9091 9.02441L23.991 9.03513C23.991 9.14867 24.0087 9.26542 23.991 9.37521C23.7949 10.4271 23.5919 11.4779 23.3926 12.5292C23.363 12.6968 23.2957 12.8555 23.1959 12.9934C23.096 13.1312 22.9661 13.2446 22.8161 13.325C22.6226 13.4359 22.4287 13.5478 22.2471 13.6764C21.6197 14.1166 21.3861 14.7234 21.52 15.4732C21.5784 15.7946 21.6529 16.1191 21.73 16.4373C21.8484 16.9289 21.7675 17.3772 21.4477 17.7724C21.2285 18.0402 20.9965 18.3016 20.7742 18.5694C20.6258 18.7477 20.4768 18.926 20.3418 19.114C19.8934 19.7412 19.7883 20.416 20.0819 21.139C20.2427 21.5273 20.4077 21.9119 20.5556 22.3039C20.6503 22.5441 20.7245 22.7919 20.7774 23.0446C20.8385 23.3595 20.7302 23.6257 20.4559 23.8088C20.1816 23.992 19.8982 23.9663 19.6592 23.7724C19.4039 23.5648 19.1695 23.3327 18.9595 23.0794C18.6289 22.682 18.3262 22.261 18.0127 21.8476C17.7079 21.4475 17.3377 21.2526 16.8078 21.35C15.801 21.5353 14.7836 21.6639 13.7779 21.8562C13.4527 21.9183 13.1398 22.0832 12.8429 22.2412C12.6695 22.3281 12.523 22.4606 12.4192 22.6244C12.3154 22.7882 12.2581 22.9771 12.2536 23.171C12.2466 23.2867 12.2343 23.4018 12.222 23.5175C12.177 23.946 11.885 24.1222 11.5137 23.9026C11.3074 23.7805 11.1343 23.5812 10.9843 23.3906C10.8611 23.2299 10.7823 23.0339 10.7046 22.8443C10.1645 21.5295 9.17173 20.7068 7.84191 20.3041C6.95626 20.0363 6.04007 19.8703 5.14209 19.641C4.52165 19.4804 3.90013 19.3197 3.29416 19.1108C2.62945 18.8824 2.04924 18.4586 1.62947 17.8951C0.841333 16.8593 0.2809 15.7137 0.0451544 14.4235C-0.0461148 13.9009 0.00952931 13.3632 0.20589 12.8703C0.369841 12.4371 0.558438 12.0134 0.758822 11.5952C1.13441 10.818 1.49714 10.034 1.56518 9.11707Z" fill="#565656"/>
<path d="M7.6625 11.805C7.26013 11.2528 6.86579 10.7253 6.48699 10.1865C5.53061 8.82721 4.6471 7.42616 3.94361 5.9137C3.23209 4.38358 3.36121 2.95093 4.38028 1.60986C5.44863 0.204519 7.34692 -0.350868 9.04804 0.224335C10.7181 0.789362 11.8877 2.4009 11.8749 4.15917C11.87 4.97592 11.5357 5.70483 11.1815 6.41714C10.2402 8.31199 9.03411 10.0371 7.75948 11.7193C7.72893 11.7498 7.69654 11.7784 7.6625 11.805ZM7.64589 6.39947C8.84498 6.42999 9.85387 5.46436 9.89619 4.24594C9.93691 3.05268 8.9575 2.02171 7.75305 1.98958C6.5486 1.95744 5.50757 2.92147 5.47864 4.11365C5.46915 4.40618 5.51776 4.69769 5.62166 4.97132C5.72557 5.24495 5.8827 5.49528 6.08398 5.70784C6.28527 5.9204 6.52671 6.09096 6.79434 6.20968C7.06197 6.32839 7.35049 6.3929 7.64321 6.39947H7.64589Z" fill="#565656"/>
</g>
<defs>
<clipPath id="clip0_415_5714">
<rect width="24" height="24" fill="white"/>
</clipPath>
</defs>
</svg>
