<svg width="28" height="28" viewBox="0 0 28 28" fill="none" xmlns="http://www.w3.org/2000/svg">
<path d="M9.0417 2.91663C9.0417 2.68456 8.94952 2.462 8.78542 2.29791C8.62133 2.13381 8.39877 2.04163 8.1667 2.04163C7.93464 2.04163 7.71208 2.13381 7.54799 2.29791C7.38389 2.462 7.2917 2.68456 7.2917 2.91663V4.75996C5.6117 4.89413 4.51037 5.22313 3.7007 6.03396C2.88987 6.84363 2.56087 7.94613 2.42554 9.62496H25.5745C25.4392 7.94496 25.1102 6.84363 24.2994 6.03396C23.4897 5.22313 22.3872 4.89413 20.7084 4.75879V2.91663C20.7084 2.68456 20.6162 2.462 20.4521 2.29791C20.288 2.13381 20.0654 2.04163 19.8334 2.04163C19.6013 2.04163 19.3787 2.13381 19.2147 2.29791C19.0506 2.462 18.9584 2.68456 18.9584 2.91663V4.68179C18.1825 4.66663 17.3122 4.66663 16.3334 4.66663H11.6667C10.6879 4.66663 9.81754 4.66663 9.0417 4.68179V2.91663Z" fill="white"/>
<path fill-rule="evenodd" clip-rule="evenodd" d="M2.33325 14C2.33325 13.0212 2.33325 12.1508 2.34842 11.375H25.6514C25.6666 12.1508 25.6666 13.0212 25.6666 14V16.3333C25.6666 20.7328 25.6666 22.9332 24.2993 24.2993C22.9331 25.6667 20.7328 25.6667 16.3333 25.6667H11.6666C7.26709 25.6667 5.06675 25.6667 3.70059 24.2993C2.33325 22.9332 2.33325 20.7328 2.33325 16.3333V14ZM19.8333 16.3333C20.1427 16.3333 20.4394 16.2104 20.6582 15.9916C20.877 15.7728 20.9999 15.4761 20.9999 15.1667C20.9999 14.8572 20.877 14.5605 20.6582 14.3417C20.4394 14.1229 20.1427 14 19.8333 14C19.5238 14 19.2271 14.1229 19.0083 14.3417C18.7895 14.5605 18.6666 14.8572 18.6666 15.1667C18.6666 15.4761 18.7895 15.7728 19.0083 15.9916C19.2271 16.2104 19.5238 16.3333 19.8333 16.3333ZM19.8333 21C20.1427 21 20.4394 20.8771 20.6582 20.6583C20.877 20.4395 20.9999 20.1428 20.9999 19.8333C20.9999 19.5239 20.877 19.2272 20.6582 19.0084C20.4394 18.7896 20.1427 18.6667 19.8333 18.6667C19.5238 18.6667 19.2271 18.7896 19.0083 19.0084C18.7895 19.2272 18.6666 19.5239 18.6666 19.8333C18.6666 20.1428 18.7895 20.4395 19.0083 20.6583C19.2271 20.8771 19.5238 21 19.8333 21ZM15.1666 15.1667C15.1666 15.4761 15.0437 15.7728 14.8249 15.9916C14.6061 16.2104 14.3093 16.3333 13.9999 16.3333C13.6905 16.3333 13.3938 16.2104 13.175 15.9916C12.9562 15.7728 12.8333 15.4761 12.8333 15.1667C12.8333 14.8572 12.9562 14.5605 13.175 14.3417C13.3938 14.1229 13.6905 14 13.9999 14C14.3093 14 14.6061 14.1229 14.8249 14.3417C15.0437 14.5605 15.1666 14.8572 15.1666 15.1667ZM15.1666 19.8333C15.1666 20.1428 15.0437 20.4395 14.8249 20.6583C14.6061 20.8771 14.3093 21 13.9999 21C13.6905 21 13.3938 20.8771 13.175 20.6583C12.9562 20.4395 12.8333 20.1428 12.8333 19.8333C12.8333 19.5239 12.9562 19.2272 13.175 19.0084C13.3938 18.7896 13.6905 18.6667 13.9999 18.6667C14.3093 18.6667 14.6061 18.7896 14.8249 19.0084C15.0437 19.2272 15.1666 19.5239 15.1666 19.8333ZM8.16659 16.3333C8.47601 16.3333 8.77275 16.2104 8.99154 15.9916C9.21034 15.7728 9.33325 15.4761 9.33325 15.1667C9.33325 14.8572 9.21034 14.5605 8.99154 14.3417C8.77275 14.1229 8.47601 14 8.16659 14C7.85717 14 7.56042 14.1229 7.34163 14.3417C7.12284 14.5605 6.99992 14.8572 6.99992 15.1667C6.99992 15.4761 7.12284 15.7728 7.34163 15.9916C7.56042 16.2104 7.85717 16.3333 8.16659 16.3333ZM8.16659 21C8.47601 21 8.77275 20.8771 8.99154 20.6583C9.21034 20.4395 9.33325 20.1428 9.33325 19.8333C9.33325 19.5239 9.21034 19.2272 8.99154 19.0084C8.77275 18.7896 8.47601 18.6667 8.16659 18.6667C7.85717 18.6667 7.56042 18.7896 7.34163 19.0084C7.12284 19.2272 6.99992 19.5239 6.99992 19.8333C6.99992 20.1428 7.12284 20.4395 7.34163 20.6583C7.56042 20.8771 7.85717 21 8.16659 21Z" fill="white"/>
</svg>
